<?xml version="1.0" encoding="UTF-8"?>
<!DOCTYPE svg PUBLIC "-//W3C//DTD SVG 1.1//EN" "http://www.w3.org/Graphics/SVG/1.1/DTD/svg11.dtd">
<!-- Creator: CorelDRAW X5 -->
<svg xmlns="http://www.w3.org/2000/svg" xml:space="preserve" width="507px" height="599px" style="shape-rendering:geometricPrecision; text-rendering:geometricPrecision; image-rendering:optimizeQuality; fill-rule:evenodd; clip-rule:evenodd"
viewBox="0 0 507000 599460"
 xmlns:xlink="http://www.w3.org/1999/xlink">
 <defs>
  <style type="text/css">
   <![CDATA[
    .fil3 {fill:#5CC6D0}
    .fil4 {fill:#ED3237}
    .fil55 {fill:#FFF212}
    .fil1 {fill:#2D4EA2}
    .fil2 {fill:#ED1C24}
    .fil0 {fill:white}
    .fil5 {fill:#EE3737}
    .fil6 {fill:#EE3C37}
    .fil7 {fill:#EE4237}
    .fil8 {fill:#EF4737}
    .fil9 {fill:#EF4B37}
    .fil10 {fill:#EF5036}
    .fil11 {fill:#F05436}
    .fil12 {fill:#F05836}
    .fil13 {fill:#F05C36}
    .fil14 {fill:#F16136}
    .fil15 {fill:#F16436}
    .fil16 {fill:#F26835}
    .fil17 {fill:#F26C35}
    .fil18 {fill:#F27035}
    .fil19 {fill:#F37335}
    .fil20 {fill:#F37735}
    .fil21 {fill:#F47B35}
    .fil22 {fill:#F47E35}
    .fil23 {fill:#F48134}
    .fil24 {fill:#F58534}
    .fil25 {fill:#F58834}
    .fil26 {fill:#F68B34}
    .fil27 {fill:#F68E34}
    .fil28 {fill:#F79233}
    .fil29 {fill:#F79533}
    .fil30 {fill:#F89833}
    .fil31 {fill:#F89C32}
    .fil32 {fill:#F89F32}
    .fil33 {fill:#F9A232}
    .fil34 {fill:#F9A631}
    .fil35 {fill:#FAA931}
    .fil36 {fill:#FBAD30}
    .fil37 {fill:#FBB02F}
    .fil38 {fill:#FCB42F}
    .fil39 {fill:#FCB72E}
    .fil40 {fill:#FDBB2D}
    .fil41 {fill:#FDBE2D}
    .fil42 {fill:#FEC22C}
    .fil43 {fill:#FEC62B}
    .fil44 {fill:#FFC929}
    .fil45 {fill:#FFCD28}
    .fil46 {fill:#FFD027}
    .fil47 {fill:#FFD326}
    .fil48 {fill:#FFD724}
    .fil49 {fill:#FFDA22}
    .fil50 {fill:#FFDE20}
    .fil51 {fill:#FFE11E}
    .fil52 {fill:#FFE51D}
    .fil53 {fill:#FFE81A}
    .fil54 {fill:#FFEC17}
   ]]>
  </style>
 </defs>
 <g id="Kemenpora">
  <metadata id="CorelCorpID_0Corel-Layer"/>
  <path class="fil0" d="M503274 299730c0,-163492 -111828,-296028 -249774,-296028 -137946,0 -249774,132536 -249774,296028 0,163492 111828,296028 249774,296028 137946,0 249774,-132536 249774,-296028z"/>
  <path class="fil1" d="M253500 179c70058,0 133448,33613 179302,87957 45718,54185 73996,128998 73996,211594 0,82596 -28279,157409 -73997,211594 -45853,54345 -109243,87957 -179301,87957 -70058,0 -133448,-33612 -179301,-87956 -45719,-54185 -73997,-128998 -73997,-211595 0,-82597 28278,-157409 73997,-211594 45853,-54344 109243,-87957 179301,-87957l0 0zm173933 92500c-44548,-52796 -106046,-85451 -173933,-85451 -67888,0 -129386,32655 -173933,85451 -44681,52956 -72318,126157 -72318,207051 0,80895 27636,154096 72318,207051 44547,52796 106045,85452 173933,85452 67887,0 129385,-32655 173933,-85452 44681,-52955 72318,-126156 72318,-207051 0,-80895 -27637,-154097 -72318,-207052z"/>
  <path class="fil0" d="M431909 299730c0,-118239 -79877,-214091 -178409,-214091 -98533,0 -178409,95852 -178409,214091 0,118239 79877,214091 178409,214091 98533,0 178409,-95852 178409,-214091z"/>
  <path class="fil2" d="M253500 85639c98533,0 178410,95852 178410,214091l-356820 0c0,-118239 79877,-214091 178410,-214091z"/>
  <path class="fil0" d="M214549 236959l14034 0 4406 0 0 0 1762 0 18527 0 0 0 0 0 0 18 19708 0 1763 0 0 -17 4405 0 12853 0 1808 0 1307 1307 19352 19362 3105 3107 0 0 1254 1255 48032 48057 1273 3098 -1 7444 1 26791 0 1831 -1290 1285 -51405 51135 0 98925c-2903,1290 -5839,2499 -8810,3609l0 -104349 0 -1814 1308 -1301 51423 -51153 -1 -24960 1 -5621 -43636 -43660 -32167 32167 0 207303c-4928,1003 -9923,1764 -14978,2274l0 -267301 -15304 1 0 18 0 0 0 0 -14125 0 0 267362c-5055,-487 -10050,-1226 -14978,-2205l0 -265157 -7822 0 -16696 16705 0 135267 263 263 0 1815 0 104174c-2971,-1121 -5908,-2338 -8810,-3639l0 -98722 -264 -262 0 -1 -4859 -4834 -24215 -24088 -7503 -7463 -14565 -14488 -1290 -1285 0 -1830 0 -12946 -18 0 0 -6167 18 0 0 -7677 0 -7444 1273 -3098c22144,-22154 45357,-45380 71744,-71780l1307 -1308 1809 0 0 -2zm-61584 97476l0 -6167 0 -19073 -5772 5775 0 5621 0 7677 17 0 0 6167 -17 0 0 11115 5772 5742 0 -16857 0 0zm137236 -88666l-6640 0 0 36527 21579 -21580 -14939 -14947 0 0zm-122257 120421l16739 16652 0 -44002 -16739 0 0 27351 0 0zm16739 -88730l-16740 16748 0 29655 16740 0 0 -46403 0 0zm136109 23938l-3115 -3115 -3114 3115 -16468 16468 -3114 3115 3114 3114 4360 4360 3115 3115 3114 -3115 16468 -16468 3114 -3114 -3114 -3114 -4360 -4361z"/>
  <path class="fil1" d="M253500 83878c49810,0 94888,24207 127504,63347 32542,39048 52669,92970 52669,152507 0,59538 -20128,113458 -52669,152508 -32615,39138 -77693,63347 -127504,63347 -49810,0 -94888,-24208 -127504,-63347 -32541,-39051 -52669,-92971 -52669,-152509 0,-59537 20128,-113458 52668,-152507 32616,-39138 77695,-63346 127505,-63346l0 0zm124806 65589c-31956,-38348 -76083,-62066 -124806,-62066 -48722,0 -92849,23719 -124806,62066 -32030,38437 -51842,91561 -51842,150263 0,58702 19812,111828 51842,150264 31956,38346 76083,62065 124806,62065 48723,0 92850,-23719 124806,-62065 32030,-38436 51842,-91562 51842,-150264 0,-58702 -19812,-111827 -51842,-150263z"/>
  <path class="fil1" d="M214549 241365l14034 0 0 270370c-11402,-1913 -22460,-5111 -33065,-9482l0 -102435 -264 -262 0 0 -37884 -37685 -14565 -14489 0 -12946 0 -6167 0 -7677 -1 -7444 14565 -14572 0 29694 1 0 0 6167 37884 0 0 -73766 19295 -19304zm0 0l0 0zm20201 0l18527 0 0 0 19708 0 0 271182c-6401,834 -12900,1276 -19488,1276 -6332,0 -12587,-398 -18749,-1175l0 -271283 1 0zm44404 0l1 0 12852 0 19352 19362 -32204 32205 0 -51567 -1 0zm36564 23724l-36564 36564 0 209956c10982,-1896 21643,-4987 31883,-9171l0 -102621 52713 -52436 -1 -26791 1 -7444 -48032 -48057zm0 0l0 0zm-126632 128332l0 0zm-25550 -101018l25550 -25563 0 61428 -25550 0 0 -35865zm0 0l0 0zm158500 16472l-16468 16468 -4361 -4360 16468 -16468 4361 4360z"/>
  <path class="fil0" d="M290159 306434c5178,0 10151,1044 14717,2936 4760,1971 9013,4829 12539,8355 3526,3526 6384,7779 8356,12539 1891,4566 2935,9539 2935,14717 0,5178 -1043,10151 -2935,14717 -1972,4761 -4830,9013 -8356,12540 -3525,3526 -7779,6384 -12539,8355 -4566,1891 -9538,2935 -14717,2935 -5178,0 -10151,-1043 -14717,-2935 -4760,-1971 -9013,-4829 -12539,-8355 -1848,-1849 -3542,-3944 -5048,-6258 -501,-771 -976,-1561 -1424,-2369 -829,56 -1606,86 -2325,86 -603,0 -1265,-22 -1982,-66 -450,812 -928,1606 -1432,2378 -1504,2304 -3192,4391 -5029,6229 -3526,3526 -7779,6384 -12539,8355 -4565,1891 -9538,2935 -14716,2935 -5178,0 -10151,-1043 -14717,-2935 -4760,-1971 -9013,-4829 -12539,-8355 -3525,-3526 -6384,-7779 -8355,-12540 -1891,-4565 -2935,-9538 -2935,-14717 0,-5177 1044,-10151 2935,-14717 1971,-4760 4830,-9012 8355,-12539 3525,-3526 7779,-6384 12539,-8355 4565,-1891 9538,-2936 14717,-2936 603,0 1266,22 1983,66 450,-812 927,-1606 1432,-2378 1504,-2304 3192,-4391 5029,-6229 3526,-3526 7779,-6384 12539,-8356 4565,-1891 9538,-2935 14716,-2935 5179,0 10151,1043 14718,2935 4760,1972 9012,4830 12539,8356 1848,1848 3542,3945 5048,6258 502,770 977,1560 1424,2368 829,-56 1605,-85 2324,-85l0 0zm-59310 49423c-1468,-1107 -2804,-2262 -3996,-3454 -3526,-3525 -6384,-7779 -8355,-12539 -1458,-3521 -2414,-7283 -2773,-11196 -1285,203 -2509,550 -3656,1026 -1977,819 -3791,2053 -5342,3603 -1551,1551 -2784,3363 -3602,5341 -795,1921 -1235,4061 -1235,6341 0,2280 439,4420 1235,6341 819,1978 2052,3791 3602,5342 1551,1551 3363,2783 5342,3602 1921,796 4061,1235 6341,1235 2280,0 4420,-439 6341,-1235 1978,-819 3791,-2052 5342,-3602 263,-264 516,-532 757,-804l0 0zm10819 -41586c1468,1108 2804,2262 3996,3454 3526,3526 6384,7779 8356,12539 90,218 178,436 265,655 86,-220 173,-439 265,-655 1971,-4760 4829,-9013 8355,-12539 1120,-1120 2388,-2221 3796,-3297 -288,-338 -587,-664 -898,-974l-13 13c-1551,-1551 -3363,-2783 -5342,-3603 -1921,-795 -4061,-1235 -6341,-1235 -2280,0 -4420,439 -6341,1235 -1977,820 -3791,2053 -5342,3603 -263,263 -517,533 -757,804l0 0zm50828 14347c-357,3932 -1313,7711 -2777,11247 -1971,4760 -4830,9013 -8355,12539 -1120,1120 -2388,2221 -3796,3296 287,338 587,664 898,976l13 -13c1551,1551 3363,2783 5342,3602 1921,796 4061,1235 6341,1235 2280,0 4420,-439 6341,-1235 1978,-819 3791,-2052 5342,-3602 1551,-1550 2783,-3363 3602,-5342 795,-1921 1235,-4061 1235,-6341 0,-2280 -439,-4420 -1235,-6341 -819,-1978 -2052,-3790 -3602,-5341 -1550,-1550 -3363,-2784 -5342,-3603 -1251,-518 -2593,-883 -4006,-1077z"/>
  <path class="fil2" d="M290159 313042c8819,0 16804,3576 22583,9355 5779,5780 9355,13765 9355,22583 0,8819 -3575,16804 -9355,22583 -5779,5779 -13765,9355 -22583,9355 -8819,0 -16804,-3576 -22583,-9355 -3123,-3123 -5603,-6892 -7222,-11088 -2020,401 -4109,611 -6246,611 -2021,0 -3999,-189 -5917,-548 -1620,4171 -4090,7917 -7198,11026 -5779,5779 -13765,9355 -22583,9355 -8819,0 -16803,-3576 -22583,-9355 -5780,-5780 -9355,-13765 -9355,-22583 0,-8819 3575,-16803 9355,-22583 5780,-5778 13765,-9355 22583,-9355 2022,0 4000,189 5918,548 1620,-4171 4091,-7917 7198,-11025 5780,-5779 13765,-9355 22583,-9355 8819,0 16804,3575 22583,9355 3124,3124 5603,6893 7222,11088 2022,-400 4110,-611 6247,-611l0 0zm-50332 40680c-3085,-1545 -5887,-3576 -8303,-5991 -5779,-5779 -9355,-13764 -9355,-22582 0,-1002 47,-1992 136,-2969 -1267,-215 -2569,-328 -3898,-328 -6387,0 -12169,2590 -16354,6774 -4184,4185 -6773,9968 -6773,16354 0,6388 2588,12169 6773,16354 4185,4184 9968,6774 16354,6774 6386,0 12169,-2590 16354,-6774 2158,-2159 3892,-4741 5065,-7612l0 0zm-7138 -37317c3086,1546 5887,3575 8303,5991 5779,5780 9355,13765 9355,22583 0,1002 -47,1992 -137,2969 1268,215 2569,328 3898,328 1451,0 2869,-134 4245,-389 -87,-958 -130,-1926 -130,-2908 0,-8819 3575,-16803 9355,-22583 2340,-2339 5039,-4316 8010,-5842 -1174,-2931 -2929,-5564 -5124,-7760 -4185,-4184 -9968,-6773 -16354,-6773 -6387,0 -12169,2589 -16354,6773 -2158,2158 -3893,4741 -5065,7612l0 0zm2074 12220c-1147,-1147 -2414,-2172 -3779,-3059 111,6220 2677,11841 6769,15935 1147,1146 2414,2172 3779,3059 -111,-6220 -2677,-11842 -6769,-15935l0 0zm51152 -6385c87,958 131,1927 131,2908 0,8819 -3576,16803 -9355,22582 -2339,2340 -5039,4317 -8009,5843 1174,2931 2929,5565 5124,7760 4184,4184 9967,6774 16354,6774 6387,0 12169,-2590 16354,-6774 4185,-4185 6774,-9968 6774,-16354 0,-6387 -2589,-12169 -6774,-16354 -4184,-4184 -9968,-6774 -16354,-6774 -1451,0 -2869,134 -4245,389l0 0zm-18873 22084c1229,-831 2375,-1777 3421,-2822 4041,-4041 6593,-9573 6764,-15699 -1230,831 -2376,1777 -3421,2822 -4042,4041 -6594,9573 -6764,15699z"/>
  <path class="fil0" d="M252970 272673c3133,-3617 8786,-7989 18930,-11309 8892,-2911 21015,-7564 27866,-18365 5711,-9001 7959,-22489 2108,-43213 -4171,15900 -13979,19714 -14015,19728l-7559 3082 2961 -7610c25,-64 6435,-16090 2391,-33656 -1080,15080 -9790,23693 -9826,23730l-6016 -2739c7,-85 2501,-29670 -14881,-57322 -7404,-11778 -9728,-19067 -9737,-25379 -3235,5687 -5723,13390 -3686,22282 2504,10927 3635,18283 3042,24573 -620,6573 -3030,11686 -7599,17938l-6304 -2629c313,-1979 507,-3817 582,-5553 -939,3389 -2218,7404 -3901,12491 -3907,11813 -5726,19212 -5662,25176 62,5696 1937,10433 5427,17003l-5314 4391c-6904,-5541 -11390,-10259 -13936,-16251 -489,-1150 -900,-2335 -1238,-3568 -763,4489 -1051,9491 -334,14570 1168,8276 5064,16815 14078,23682 4561,3475 10428,6538 17905,8956l3 -9c7798,2466 12223,6496 14713,10003l0 0zm21105 -4619c-16829,5510 -17999,12700 -18003,12721l-6923 -97c-4,-21 -1075,-7515 -13010,-11289l-14 -14c-8305,-2683 -14878,-6128 -20041,-10061 -10732,-8177 -15377,-18392 -16777,-28309 -1372,-9714 430,-19083 2624,-25873 3028,-9373 10298,-21031 14983,-29912 -2022,11334 -7057,30576 -2600,41066 169,399 353,793 549,1182 -131,-1139 -203,-2306 -216,-3518 -75,-6895 1851,-14914 5992,-27434 2971,-8981 4630,-14431 5313,-18716 1056,-6621 628,-17585 -1370,-24570 7021,7753 10758,13517 12892,23339 31,-250 59,-503 84,-758 508,-5383 -563,-12125 -2904,-22343 -5330,-23258 10787,-36273 25493,-49883l-5464 13926c-4195,14904 -2307,20217 6194,33742 11390,18121 14822,37059 15765,49076 6182,-16785 -2930,-32202 -9506,-47256 18915,18804 30339,30801 26106,60496 4517,-10223 3383,-23251 3252,-34322 11595,22569 24249,53832 9219,77523 -8097,12768 -21691,18027 -31635,21283z"/>
  <path class="fil3" d="M252618 280128c0,0 1534,-9250 20369,-15418 18837,-6168 51435,-19824 27207,-80615 0,26871 -13656,32158 -13656,32158 0,0 13215,-33039 -8810,-57708 12297,27545 -4405,44051 -4405,44051 0,0 2596,-30810 -15418,-59470 -12114,-19273 -9692,-25550 -6608,-36563 0,0 -18061,14978 -13215,36123 4846,21144 4405,28192 -3965,39646 1762,-11124 26,-18268 -5040,-27189 1676,10167 943,14232 -5092,32476 -8049,24333 -7489,30836 0,44933 -12918,-10368 -16669,-17374 -14467,-35875 -3524,4625 -24627,52455 27682,69355 14022,4433 15418,14097 15418,14097z"/>
  <path class="fil1" d="M58820 356319l-32369 4549 -794 -5650 14372 -2020 -15977 -9398 -1068 -7599 14090 8767 18199 -13889 1027 7312 -14112 9826 6055 3828 9782 -1375 795 5649 0 0zm-3998 -27806l-32642 1711 -1096 -20927 5525 -290 797 15228 7236 -379 -742 -14170 5495 -288 742 14170 8885 -466 -826 -15767 5502 -289 1124 21466 0 0zm-1451 -26407l-32667 -1141 298 -8537 22464 -4346 -22108 -5843 299 -8557 32667 1141 -185 5295 -25715 -898 25519 6509 -192 5492 -25910 4693 25716 898 -185 5295 0 0zm1657 -32923l-32284 -5114 3278 -20697 5465 865 -2385 15061 7156 1134 2220 -14015 5434 861 -2220 14015 8786 1392 2470 -15595 5442 862 -3363 21230 0 0zm4088 -26029l-31716 -7907 1343 -5390 23978 -5945 -21178 -5280 1283 -5147 31716 7908 -1387 5562 -23440 5896 20684 5157 -1282 5147 0 0zm9399 -33632l-25350 -9732 -3004 7828 -5166 -1982 8050 -20970 5166 1982 -2998 7809 25350 9732 -2048 5333 0 0zm6277 -16796l9422 -19319 -4953 -2416 -6921 14191 -7997 -3900 6220 -12754 -4944 -2413 -6221 12754 -6512 -3176 6684 -13706 -4973 -2425 -9186 18834 29379 14330 0 0zm11293 -23555l-27098 -18278 6720 -9963c1689,-2504 3160,-4155 4412,-4962 1251,-808 2730,-1135 4433,-979 1710,160 3358,779 4960,1861 2032,1370 3367,3025 3996,4950 623,1921 417,4037 -630,6323 1386,-558 2714,-893 3989,-1001 1275,-108 3343,-15 6212,277l7219 702 -3817 5658 -8207 -558c-2928,-205 -4812,-269 -5663,-192 -850,77 -1544,301 -2090,662 -540,366 -1175,1089 -1911,2180l-644 955 11312 7631 -3193 4736 0 0zm-12445 -15286l2359 -3497c1531,-2270 2380,-3761 2542,-4477 158,-712 72,-1412 -254,-2100 -330,-683 -894,-1302 -1708,-1851 -915,-617 -1790,-898 -2635,-856 -845,42 -1599,397 -2269,1065 -314,344 -1123,1474 -2418,3394l-2488 3688 6871 4635 0 0zm28335 -8218l3434 -4556 -26105 -19672 -3434 4557 26105 19672 0 0zm23588 -28058l-31866 -13460 -4038 4484 16923 30055 4051 -4499 -3961 -6702 7561 -8398 7172 3136 4157 -4617 0 0zm-16641 -841l-5161 5732 -6461 -10954 11622 5222 0 0zm18945 -967l-21011 -25039 4255 -3571 22893 9283 -14030 -16721 4064 -3409 21010 25040 -4391 3685 -22428 -9007 13702 16330 -4064 3409 0 0zm31096 -24582l5039 -2679 -5789 -10886 3284 -1746c2283,-1214 3952,-2282 5008,-3198 766,-692 1394,-1613 1884,-2751 492,-1149 691,-2471 606,-3977 -81,-1500 -595,-3140 -1539,-4913 -1218,-2292 -2697,-3910 -4434,-4848 -1736,-939 -3439,-1240 -5098,-910 -1083,205 -3161,1120 -6223,2749l-8083 4298 15345 28860 0 0zm-7710 -26655l2435 -1295c1813,-964 3054,-1546 3729,-1733 903,-265 1811,-196 2701,202 898,401 1627,1125 2185,2174 454,853 659,1701 624,2547 -40,850 -313,1598 -821,2255 -507,658 -1760,1513 -3746,2570l-2755 1464 -4352 -8185 0 0zm31035 14646l-11714 -30516 19564 -7509 1982 5165 -14236 5465 2596 6764 13247 -5085 1972 5137 -13247 5085 3188 8305 14739 -5658 1975 5144 -20067 7703 0 0zm24820 -9549l5201 -1011 -4910 -25258 10401 24191 5395 -1049 601 -26329 4910 25258 5201 -1011 -6237 -32087 -8406 1634 -721 22856 -9289 -20911 -8386 1630 6238 32087 0 0zm32018 -38135l5705 -100 309 17699c48,2808 153,4633 306,5460 267,1335 871,2398 1799,3188 936,797 2200,1180 3792,1152 1619,-29 2836,-430 3645,-1213 809,-776 1286,-1728 1430,-2841 152,-1121 198,-2972 153,-5559l-315 -18080 5705 -100 300 17166c69,3927 -34,6699 -315,8325 -281,1626 -824,2998 -1633,4131 -810,1125 -1906,2036 -3276,2722 -1377,686 -3187,1045 -5425,1084 -2698,47 -4751,-275 -6158,-974 -1407,-699 -2523,-1615 -3352,-2750 -829,-1135 -1384,-2335 -1662,-3595 -407,-1865 -640,-4624 -704,-8284l-304 -17431 0 0zm33629 761l10330 1452c2326,327 4071,780 5237,1366 1565,788 2832,1981 3797,3577 973,1589 1620,3462 1943,5613 315,2158 263,4748 -164,7786 -373,2660 -983,4919 -1828,6768 -1028,2254 -2293,4020 -3801,5292 -1133,970 -2577,1644 -4332,2027 -1309,284 -3010,277 -5101,-18l-10630 -1494 4548 -32370 0 0zm4880 6274l-3013 21434 4217 593c1577,222 2732,284 3465,172 950,-135 1775,-473 2469,-1021 695,-548 1331,-1527 1920,-2920 582,-1394 1056,-3348 1407,-5851 351,-2502 425,-4444 236,-5839 -196,-1395 -583,-2518 -1163,-3360 -585,-851 -1388,-1479 -2407,-1890 -759,-322 -2289,-637 -4596,-961l-2534 -356 0 0zm42684 38585l-60 -34592 -5707 -1964 -21052 27322 5725 1971 4621 -6265 10685 3679 -85 7827 5873 2021 0 0zm-5728 -15647l-7294 -2511 7559 -10228 -266 12738 0 0zm34237 -7349l8942 5373c2014,1210 3442,2308 4287,3304 1132,1337 1833,2930 2098,4777 275,1843 138,3821 -405,5927 -553,2109 -1613,4474 -3193,7102 -1384,2302 -2828,4143 -4327,5515 -1827,1673 -3681,2805 -5566,3385 -1423,451 -3015,506 -4780,174 -1317,-250 -2878,-921 -4689,-2010l-9201 -5529 16834 -28018 0 0zm2042 7682l-11147 18552 3650 2193c1365,820 2403,1329 3123,1512 927,247 1818,258 2672,25 855,-233 1822,-885 2908,-1938 1080,-1056 2280,-2670 3581,-4835 1301,-2166 2128,-3925 2498,-5282 365,-1361 446,-2545 242,-3547 -206,-1012 -699,-1904 -1476,-2680 -573,-593 -1859,-1481 -3855,-2681l-2195 -1318 0 0zm25897 51004l10631 -32918 -4819 -3632 -28464 19479 4835 3644 6331 -4530 9024 6800 -2499 7418 4960 3739 0 0zm-613 -16652l-6160 -4642 10349 -7391 -4190 12033 0 0zm2229 19460l23113 -23112 3928 3927 -7253 23615 15435 -15435 3751 3751 -23113 23113 -4054 -4054 7018 -23129 -15074 15073 -3752 -3750 0 0zm38728 19094c-4309,2906 -7005,6217 -8078,9934 -1067,3712 -428,7314 1923,10800 2319,3438 5411,5353 9265,5746 3861,388 7976,-887 12355,-3840 4410,-2975 7155,-6335 8231,-10076 1080,-3746 455,-7341 -1874,-10795 -1288,-1910 -2775,-3352 -4481,-4329 -1269,-739 -2764,-1200 -4478,-1386 -1719,-181 -3451,-68 -5187,324 -2356,550 -4911,1758 -7675,3621l0 0zm3470 4749c3123,-2107 5856,-3077 8204,-2930 2351,152 4188,1200 5505,3153 1314,1948 1606,4029 875,6237 -742,2207 -2661,4358 -5765,6452 -3142,2119 -5904,3101 -8288,2955 -2395,-147 -4222,-1169 -5492,-3052 -1273,-1888 -1534,-3974 -778,-6270 760,-2290 2673,-4478 5739,-6546l0 0zm804 31146l29139 -14212 2501 5128 -24187 11797 6221 12754 -4953 2416 -8721 -17883 0 0zm19533 45679l26460 -22282 -2164 -5634 -34461 1434 2170 5653 7770 -487 4049 10549 -6050 4966 2226 5801 0 0zm8304 -14446l-2765 -7201 12694 -783 -9929 7984 0 0zm-7716 17226l31421 -9010 1574 5491 -12363 3545 3081 10749 12364 -3545 1572 5485 -31421 9010 -1572 -5486 13739 -3939 -3082 -10749 -13740 3940 -1574 -5491 0 0zm6849 27931l32284 -5114 1881 11870c472,2983 522,5195 157,6638 -364,1444 -1222,2693 -2574,3739 -1359,1049 -2987,1720 -4896,2022 -2420,384 -4525,84 -6299,-895 -1766,-980 -3058,-2667 -3852,-5053 -633,1352 -1375,2503 -2235,3452 -860,949 -2435,2291 -4732,4034l-5759 4410 -1068 -6741 6383 -5188c2281,-1847 3702,-3085 4272,-3721 570,-636 924,-1272 1076,-1910 147,-636 118,-1598 -88,-2898l-181 -1137 -13478 2135 -893 -5644 0 0zm19527 2691l660 4166c429,2705 824,4374 1194,5009 370,628 911,1081 1618,1362 706,274 1541,342 2511,189 1090,-173 1922,-565 2512,-1171 590,-606 899,-1382 934,-2327 -4,-466 -184,-1843 -546,-4131l-696 -4394 -8186 1297 0 0zm-13966 50606l31818 -13572 -421 -6020 -33376 -8704 423 6041 7572 1806 788 11272 -7238 2980 434 6196 0 0zm12165 -11386l-539 -7694 12367 2961 -11829 4733 0 0zm-1317 28491l5503 289 -644 12283 -13003 -682c-1275,-1266 -2362,-3056 -3263,-5377 -892,-2320 -1281,-4640 -1159,-6961 155,-2950 1005,-5489 2548,-7609 1551,-2120 3683,-3662 6408,-4627 2726,-965 5650,-1364 8781,-1201 3397,178 6390,954 8970,2322 2573,1374 4508,3280 5789,5734 992,1864 1413,4147 1273,6842 -184,3503 -1179,6199 -2976,8075 -1806,1883 -4220,3028 -7252,3436l-927 -5723c1624,-317 2933,-1000 3918,-2048 985,-1049 1520,-2391 1606,-4035 130,-2490 -678,-4517 -2425,-6085 -1754,-1568 -4422,-2440 -8017,-2628 -3868,-202 -6818,387 -8835,1778 -2016,1384 -3084,3285 -3209,5697 -63,1196 148,2406 624,3638 477,1224 1084,2292 1806,3192l4143 218 342 -6527 0 0zm-17170 42050l864 -6153 7700 -1409 1572 -11191 -7031 -3341 843 -5996 30836 15452 -839 5977 -33945 6661 0 0zm14268 -8608l12554 -2170 -11482 -5468 -1073 7638z"/>
  <path class="fil1" d="M64512 455836l27414 -17803 7046 10851c1771,2727 2807,4867 3119,6423 311,1556 81,3117 -693,4675 -782,1563 -1978,2864 -3600,3916 -2055,1335 -4126,1877 -6195,1625 -2064,-257 -4008,-1394 -5808,-3410 24,1573 -144,2992 -510,4259 -366,1269 -1213,3204 -2546,5819l-3323 6594 -4002 -6162 3548 -7602c1271,-2710 2025,-4484 2263,-5332 239,-848 279,-1609 135,-2293 -151,-680 -608,-1607 -1379,-2796l-675 -1040 -11444 7431 -3349 -5156 0 0zm19172 -5118l2473 3809c1606,2473 2717,3947 3341,4420 621,467 1323,695 2099,689 772,-13 1572,-277 2395,-812 926,-601 1516,-1313 1787,-2140 271,-826 208,-1706 -184,-2644 -212,-453 -995,-1728 -2353,-3819l-2609 -4017 -6949 4513 0 0zm-1738 30417l15182 17465 4159 -3616 -11152 -12828 6714 -5837 10022 11529 4152 -3611 -10022 -11528 5468 -4753 10770 12391 4176 -3631 -14801 -17026 -24668 21444 0 0zm19161 20857l23113 -23113 6969 6969c2640,2640 4245,4483 4816,5516 888,1576 1172,3368 841,5361 -331,1994 -1416,3911 -3251,5747 -1421,1421 -2856,2375 -4300,2857 -1450,488 -2815,640 -4110,453 -1285,-188 -2402,-573 -3342,-1158 -1257,-817 -2873,-2206 -4842,-4176l-2831 -2831 -8718 8718 -4345 -4343 0 0zm23544 -14856l2099 2099c1563,1563 2557,2654 2971,3282 567,836 809,1767 721,2767 -88,1010 -551,1934 -1391,2773 -684,684 -1446,1115 -2288,1307 -848,186 -1676,112 -2494,-222 -818,-334 -2083,-1363 -3797,-3077l-2376 -2376 6555 -6553 0 0zm15794 7278l-10001 14282c-2100,2999 -3522,5376 -4265,7141 -498,1193 -722,2514 -668,3955 55,1441 488,2887 1303,4340 816,1455 2416,3012 4795,4677 1974,1382 3763,2235 5367,2550 1599,312 3091,269 4459,-128 1373,-405 2653,-1171 3855,-2309 1202,-1136 2926,-3313 5177,-6529l9848 -14065 -5032 -3523 -10373 14812c-1484,2120 -2614,3585 -3407,4396 -783,809 -1759,1277 -2921,1392 -1166,122 -2464,-323 -3892,-1323 -1405,-983 -2282,-2090 -2628,-3326 -344,-1226 -245,-2466 308,-3714 354,-764 1338,-2306 2949,-4606l10154 -14501 -5031 -3523 0 0zm22918 15296l10640 5898c2107,1169 3629,2134 4558,2901 931,760 1638,1664 2123,2717 486,1053 722,2219 715,3519 -4,1294 -351,2563 -1035,3795 -741,1337 -1759,2383 -3048,3131 -1296,743 -2671,1077 -4128,1001 1337,1403 2109,2962 2301,4661 195,1710 -169,3387 -1083,5039 -720,1298 -1700,2409 -2946,3327 -1243,912 -2557,1471 -3936,1664 -1378,194 -2832,-20 -4359,-641 -948,-396 -3148,-1528 -6589,-3401l-9060 -5022 15847 -28588 0 0zm2741 7741l-3664 6610 3520 1951c2094,1161 3414,1850 3960,2065 980,396 1893,458 2734,185 841,-274 1514,-876 2027,-1800 491,-886 666,-1728 520,-2531 -152,-806 -643,-1514 -1472,-2122 -496,-362 -2009,-1244 -4537,-2646l-3087 -1712 0 0zm-6303 11369l4338 2405c2441,1353 3961,2369 4541,3047 580,679 894,1428 953,2242 53,812 -152,1648 -628,2507 -561,1011 -1265,1682 -2103,2010 -833,321 -1699,346 -2583,56 -587,-169 -1843,-795 -3783,-1871l-4971 -2756 4236 -7640 0 0zm14932 23240l20127 7326 1885 -5177 -14356 -5225 9204 -25288 -5772 -2100 -11089 30465 0 0zm24422 8362l9010 -31421 5906 1694 -9010 31421 -5906 -1694 0 0zm11720 2948l6050 1067 1715 -9729 5861 -4515 5569 16563 7829 1380 -8432 -21750 13495 -10550 -8136 -1434 -14745 12137 2521 -14292 -6050 -1067 -5677 32190 0 0zm41863 4776l-1711 -32643 6135 -322 1711 32643 -6135 321 0 0zm12051 -579l-2848 -32563 5957 -521 14311 20659 -1902 -21744 5690 -498 2849 32563 -6149 538 -14077 -20167 1858 21236 -5689 498 0 0zm21507 -35190l9011 31421 11108 -3186c2187,-627 3867,-1346 5040,-2166 1571,-1100 2715,-2330 3428,-3698 958,-1803 1469,-3953 1544,-6443 62,-2045 -278,-4362 -1019,-6945 -845,-2948 -1875,-5329 -3085,-7160 -1216,-1821 -2635,-3250 -4258,-4281 -1618,-1041 -3366,-1584 -5237,-1634 -1395,-35 -3305,299 -5736,997l-10796 3096 0 0zm7431 3626l2650 -759c2411,-691 4052,-1060 4935,-1091 1177,-60 2230,168 3161,693 923,518 1773,1376 2549,2562 768,1189 1505,2988 2202,5417 697,2429 1044,4412 1052,5929 1,1520 -219,2684 -676,3479 -457,796 -1130,1457 -2010,1986 -677,415 -1842,852 -3489,1324l-4407 1263 -5966 -20804 0 0zm24920 5201c-1514,-2970 -2372,-5667 -2571,-8102 -135,-1794 25,-3557 490,-5281 470,-1716 1192,-3187 2170,-4403 1297,-1635 3049,-3005 5259,-4131 3996,-2036 7867,-2335 11625,-892 3754,1435 6839,4527 9254,9266 2398,4706 3077,8989 2052,12860 -1029,3864 -3534,6814 -7511,8841 -4034,2056 -7915,2367 -11639,942 -3727,-1431 -6770,-4468 -9129,-9100l0 0zm5536 -3069c1679,3296 3667,5434 5949,6415 2288,978 4520,909 6703,-203 2178,-1110 3543,-2865 4080,-5274 535,-2400 -54,-5286 -1774,-8663 -1700,-3336 -3650,-5477 -5846,-6434 -2200,-946 -4429,-844 -6684,305 -2260,1152 -3653,2911 -4189,5277 -528,2363 51,5219 1762,8576l0 0zm32484 2008l4844 -3026 -11296 -18078 21697 11578 5235 -3270 -17322 -27720 -4843 3026 11566 18510 -22130 -11910 -5071 3169 17321 27720 0 0zm26077 -16382l-21871 -24292 16765 -15095 3703 4111 -12201 10985 4848 5383 11352 -10221 3683 4089 -11352 10222 5952 6612 12633 -11375 3687 4095 -17198 15485 0 0zm12101 -25026c2942,2201 5820,3198 8624,2993 2804,-205 5514,-1717 8138,-4531 1802,-1933 3020,-3820 3645,-5661 628,-1835 671,-3666 136,-5491 -529,-1820 -1487,-3371 -2855,-4648 -1508,-1407 -3053,-2295 -4635,-2664 -1584,-364 -3156,-298 -4727,194 -1567,496 -3648,1579 -6243,3246 -2591,1673 -4409,2553 -5448,2640 -817,72 -1509,-157 -2077,-687 -617,-577 -892,-1277 -814,-2096 108,-1276 781,-2567 1998,-3872 1179,-1264 2330,-1964 3460,-2092 1124,-134 2395,276 3804,1232l3978 -4690c-2266,-1978 -4711,-2873 -7344,-2693 -2632,190 -5246,1676 -7856,4474 -1595,1711 -2674,3426 -3254,5153 -569,1726 -627,3406 -169,5035 464,1634 1299,3014 2519,4150 1892,1765 4133,2575 6722,2432 1839,-97 4205,-1049 7092,-2862 2245,-1403 3712,-2284 4399,-2621 1010,-502 1857,-720 2543,-651 686,58 1309,348 1876,877 880,821 1305,1904 1276,3253 -18,1348 -710,2747 -2059,4193 -1276,1368 -2659,2103 -4143,2221 -1495,119 -3150,-427 -4972,-1642l-3615 4806 0 0zm27903 -14949l-26105 -19672 3697 -4906 26105 19671 -3697 4906 0 0zm22421 -32255l-3544 5672 -7708 -1682 -6447 10318 4970 6063 -3454 5528 -21439 -27375 3442 -5510 34179 6986 0 0zm-16961 2745l-12511 -2872 8110 9914 4401 -7042z"/>
  <polygon class="fil1" points="55057,413289 42730,419771 45084,406044 35111,396323 48893,394321 55057,381832 61220,394320 75002,396323 65029,406044 67383,419771 "/>
  <polygon class="fil1" points="451854,413289 439528,419771 441882,406044 431909,396323 445690,394321 451854,381832 458017,394320 471798,396323 461827,406044 464181,419771 "/>
  <g id="_408308448">
   <path class="fil4" d="M259954 146555l-21013 0c-265,-1236 -552,-2524 -860,-3869 -4846,-21145 13215,-36123 13215,-36123 -3084,11014 -5506,17291 6608,36563 717,1140 1397,2284 2050,3429z"/>
   <path class="fil5" d="M261785 149917l-22154 0c-432,-2218 -951,-4616 -1550,-7231 -4846,-21145 13215,-36123 13215,-36123 -3084,11014 -5506,17291 6608,36563 1418,2255 2707,4524 3881,6790z"/>
   <path class="fil6" d="M249462 108285l1350 0c-2815,9996 -4376,16596 7093,34841 2120,3372 3951,6774 5537,10152l-23200 0c-520,-3111 -1246,-6601 -2161,-10592 -3879,-16924 6916,-29896 11381,-34401z"/>
   <path class="fil7" d="M246451 111647l3451 0c-2092,8321 -2137,15348 8003,31480 2825,4494 5143,9041 7043,13514l-24207 0c-499,-3916 -1400,-8458 -2660,-13954 -3158,-13778 3410,-24935 8370,-31039zm-16549 44993l-592 0c-72,-485 -150,-983 -235,-1497 286,504 561,1003 827,1497z"/>
   <path class="fil8" d="M243956 115009l5224 0c-1193,7047 -32,14188 8724,28118 3536,5626 6275,11333 8398,16875l-25223 0c-328,-4639 -1361,-10172 -2998,-17316 -2645,-11540 1534,-21243 5876,-27678zm35018 44993l-621 0c-201,-482 -407,-967 -626,-1457 431,482 843,969 1247,1457zm-47405 0l-1852 0c-130,-1506 -349,-3090 -641,-4859 948,1669 1779,3276 2493,4859z"/>
   <path class="fil9" d="M241898 118370l6914 0c-271,6102 1715,13019 9092,24756 4256,6771 7360,13661 9621,20237l-26333 0c44,-5302 -1060,-11727 -3111,-20678 -2219,-9680 364,-18066 3817,-24316zm39629 44993l-1898 0c-538,-1566 -1166,-3172 -1901,-4819 1407,1576 2668,3186 3800,4819zm-48612 0l-3061 0c23,-2556 -264,-5101 -778,-8220 1624,2859 2905,5536 3839,8220z"/>
   <path class="fil10" d="M240235 121732l8664 0c520,5358 2942,11749 9005,21395 4988,7935 8393,16034 10713,23599l-27624 0c684,-5951 -408,-13113 -2912,-24039 -1842,-8038 -373,-15182 2154,-20954zm43423 44993l-3001 0c-702,-2605 -1659,-5333 -2930,-8180 2364,2647 4319,5392 5931,8180zm-49759 0l-4254 0c438,-3829 167,-7117 -569,-11582 2298,4047 3911,7729 4823,11582z"/>
   <path class="fil11" d="M238949 125094l10508 0c1081,4687 3599,10318 8448,18033 5735,9124 9379,18464 11685,26961l-29202 0c1662,-6663 687,-14344 -2306,-27401 -1499,-6542 -805,-12492 868,-17592zm46477 44993l-3989 0c-696,-3592 -1880,-7444 -3709,-11542 3308,3705 5817,7600 7699,11542zm-50917 0l-5400 0c1090,-5451 908,-9236 -33,-14944 2956,5205 4778,9805 5433,14944z"/>
   <path class="fil12" d="M238028 128456l12400 0c1377,3998 3731,8713 7476,14671 6502,10344 10318,20968 12541,30322l-31149 0c3029,-7547 2291,-15466 -1215,-30763 -1181,-5153 -999,-9938 -52,-14231zm48851 44993l-4921 0c-525,-4515 -1817,-9496 -4232,-14904 4246,4756 7178,9823 9152,14904zm-52111 0l-6435 0c1906,-7425 1865,-11498 743,-18305 3584,6311 5501,11734 5692,18305z"/>
   <path class="fil13" d="M237466 131817l14281 0c1414,3240 3411,6940 6157,11309 7295,11605 11209,23562 13285,33684l-33496 0c4789,-8719 4414,-16556 387,-34124 -881,-3845 -1002,-7485 -615,-10869zm50586 44993l-5836 0c-193,-5365 -1460,-11479 -4489,-18266 5183,5805 8413,12073 10325,18266zm-53331 0l-7314 0c2823,-9692 2949,-13898 1669,-21667 4177,7355 6090,13502 5645,21667z"/>
   <path class="fil14" d="M237257 135179l16084 0c1218,2391 2722,5018 4563,7948 8120,12918 12051,26272 13921,37046l-36193 0c6888,-10259 6983,-17702 2448,-37486 -596,-2601 -844,-5109 -823,-7507zm51707 44993l-6766 0c291,-6122 -789,-13379 -4471,-21627 6124,6859 9521,14364 11238,21627zm-54545 0l-8029 0c3795,-12182 4105,-16417 2685,-25029 4731,8330 6557,15111 5344,25029z"/>
   <path class="fil15" d="M237407 138541l17748 0c820,1445 1732,2969 2749,4586 8987,14299 12844,29131 14453,40407l-47035 0c4798,-14841 5297,-19031 3754,-28391 5066,8921 6802,16065 5040,27189 8370,-11454 8811,-18502 3965,-39646 -323,-1411 -542,-2793 -673,-4145zm52238 44993l-7753 0c914,-6764 216,-15175 -4165,-24989 7075,7924 10510,16710 11919,24989z"/>
   <path class="fil16" d="M237914 141902l19231 0c247,403 499,810 760,1224 9912,15770 13583,32188 14881,43769l-48563 0c5814,-17629 6506,-21722 4853,-31752 5066,8921 6802,16065 5040,27189 8370,-11454 8811,-18502 3965,-39646 -60,-263 -114,-523 -167,-784zm63368 44993l-1142 0c34,-908 53,-1839 53,-2801 377,945 739,1879 1089,2801zm-11168 0l-8830 0c1655,-7257 1582,-16839 -3557,-28351 8042,9007 11383,19128 12387,28351z"/>
   <path class="fil17" d="M238660 145264l20544 0c9882,16705 13000,33857 13906,44993l-49987 0c276,-857 561,-1734 861,-2639 6034,-18243 6767,-22309 5092,-32476 5066,8921 6802,16065 5040,27189 8020,-10975 8760,-17907 4544,-37068zm63850 44993l-2577 0c168,-1917 260,-3967 260,-6163 842,2113 1608,4163 2316,6163zm-12125 0l-10032 0c2477,-7545 3352,-18324 -2625,-31713 9032,10116 12135,21638 12657,31713z"/>
   <path class="fil18" d="M239373 148626l21730 0c9356,17406 11724,34828 12228,44993l-51265 0c574,-1876 1212,-3868 1917,-6000 6034,-18243 6767,-22309 5092,-32476 5066,8921 6802,16065 5040,27189 7532,-10308 8643,-17049 5257,-33706zm64279 44993l-4109 0c411,-2827 650,-5987 650,-9525 1322,3316 2464,6483 3459,9525zm-13185 0l-11401 0c3311,-7533 5591,-19550 -1339,-35075 10054,11261 12763,24264 12740,35075z"/>
   <path class="fil19" d="M240018 151988l22806 0c8959,18365 10483,36223 10617,44993l-52370 0c801,-2810 1770,-5906 2913,-9362 6034,-18243 6767,-22309 5092,-32476 5066,8921 6802,16065 5040,27189 7004,-9585 8455,-16087 5902,-30344zm64689 44993l-5762 0c773,-3616 1248,-7875 1248,-12887 1816,4556 3307,8843 4514,12887zm-14334 0l-12995 0c3994,-7019 8424,-20348 349,-38436 11121,12456 13256,27043 12646,38436zm-80891 0l-180 0c77,-115 150,-219 215,-305l-35 305z"/>
   <path class="fil20" d="M229109 155350l83 0c4976,8825 6673,15945 4924,26983 6429,-8798 8180,-14998 6449,-26983l23822 0c8816,19956 9203,38680 9039,44993l-53268 0c936,-3658 2206,-7830 3825,-12724 5993,-18119 6757,-22254 5125,-32269zm76552 44993l-7569 0c1262,-4256 2101,-9589 2101,-16248 2328,5841 4126,11243 5468,16248zm-15552 0l-14912 0c3984,-5387 12173,-20198 2530,-41798 12249,13719 13597,30024 12382,41798zm-80960 0l-1622 0c822,-1810 1546,-3083 1991,-3667 -152,1276 -274,2495 -369,3667z"/>
   <path class="fil21" d="M229586 158711l1377 0c3587,7377 4674,14016 3153,23621 5800,-7937 7792,-13759 6856,-23621l24826 0c9263,23223 7524,43885 7524,43885 0,0 16632,-16441 4477,-43885l72 0c13318,15046 13607,33160 11810,44993l-70319 0c955,-4422 2485,-9626 4622,-16086 5280,-15962 6501,-21070 5602,-28908zm76918 44993l-9577 0c1884,-4704 3266,-11064 3266,-19610 2859,7174 4918,13684 6311,19610zm-97549 0l-2807 0c1342,-3605 2686,-6132 3369,-7028 -304,2548 -493,4877 -562,7028z"/>
   <path class="fil22" d="M229839 162073l2600 0c2383,6126 2964,12130 1677,20259 5109,-6992 7264,-12342 7065,-20259l25891 0c7825,21818 6250,40523 6250,40523 0,0 15278,-15104 5845,-40523l1436 0c11770,15861 10649,34234 8486,44993l-70365 0c825,-5114 2556,-11274 5259,-19447 4494,-13587 6047,-19310 5855,-25546zm77402 44993l-11881 0c2633,-4885 4832,-12189 4832,-22972 3409,8554 5693,16174 7048,22972zm-98290 0l-3945 0c1655,-5387 3631,-9235 4511,-10390 -469,3937 -667,7351 -565,10390z"/>
   <path class="fil23" d="M229767 165435l3798 0c1407,5031 1603,10254 550,16898 4353,-5956 6560,-10722 6996,-16898l27101 0c6525,20343 5109,37161 5109,37161 0,0 13935,-13778 6969,-37161l2593 0c10465,16873 7787,35709 5444,44993l-70028 0c506,-5757 2361,-12763 5684,-22809 3686,-11145 5394,-16998 5783,-22184zm78074 44993l-14608 0c3458,-4654 6961,-12724 6961,-26334 3984,9996 6423,18710 7648,26334zm-98636 0l-5129 0c1764,-7124 4388,-12369 5441,-13752 -650,5457 -781,9914 -312,13752z"/>
   <path class="fil24" d="M229348 168797l4970 0c680,4036 619,8354 -202,13536 3532,-4833 5652,-8882 6559,-13536l28556 0c5354,18801 4092,33800 4092,33800 0,0 12605,-12464 7845,-33800l3618 0c9466,18398 4721,38189 2597,44993l-69226 0c-43,-6403 1830,-14089 5827,-26171 2920,-8828 4599,-14336 5364,-18823zm78968 44993l-18130 0c4045,-3609 10007,-11939 10007,-29695 4581,11495 7128,21303 8123,29695zm-98509 0l-6467 0c1667,-8808 4964,-15521 6177,-17114 -849,7128 -812,12548 290,17114z"/>
   <path class="fil25" d="M228653 172158l6055 0c201,3083 7,6399 -592,10174 2659,-3638 4516,-6832 5660,-10174l30355 0c4307,17196 3191,30438 3191,30438 0,0 11287,-11161 8467,-30438l4568 0c9139,21687 180,44094 180,44094 0,0 13656,-5287 13656,-32158 5208,13067 7785,23952 8442,33057l-90269 0c-860,-7132 899,-15268 5617,-29533 2234,-6754 3741,-11564 4669,-15461zm-17783 44993l-8065 0c1357,-10429 5349,-18686 6712,-20475 -1066,8958 -737,15220 1353,20475z"/>
   <path class="fil26" d="M227776 175520l6997 0c-52,2119 -270,4370 -656,6812 1760,-2408 3168,-4622 4251,-6812l32549 0c3378,15530 2406,27076 2406,27076 0,0 9980,-9869 8827,-27076l5487 0c6963,20579 -1098,40733 -1098,40733 0,0 13656,-5287 13656,-32158 5865,14717 8393,26664 8599,36419l-89814 0c-1958,-8050 -466,-16352 5006,-32894 1633,-4938 2878,-8836 3792,-12099zm-15253 44993l-10050 0c821,-11980 5539,-21859 7046,-23837 -1303,10942 -522,17863 3005,23837z"/>
   <path class="fil27" d="M226788 178882l7774 0c-109,1109 -257,2257 -446,3451 871,-1191 1654,-2334 2356,-3451l35122 0c2562,13805 1729,23715 1729,23715 0,0 8688,-8590 8917,-23715l6403 0c5097,19357 -2105,37371 -2105,37371 0,0 13656,-5287 13656,-32158 6557,16453 8946,29447 8578,39780l-88778 0c-3311,-9264 -2241,-17415 3991,-36256 1108,-3349 2036,-6218 2804,-8737zm-11923 44993l-12517 0c46,-13455 5523,-25039 7169,-27199 -1553,13045 -146,20375 5348,27199z"/>
   <path class="fil28" d="M225737 182243l8393 0 -14 89 64 -89 37985 0c1857,12023 1157,20353 1157,20353 0,0 7406,-7324 8722,-20353l7366 0c3515,18030 -2873,34009 -2873,34009 0,0 13656,-5287 13656,-32158 7289,18289 9429,32306 8354,43142l-87194 0c-4853,-10842 -4341,-18543 2631,-39618 643,-1945 1226,-3728 1753,-5376zm-7810 44993l-15471 0c-988,-14843 5280,-28222 7062,-30560 -1809,15199 401,22640 8409,30560z"/>
   <path class="fil29" d="M224647 185605l47986 0c1262,10187 689,16991 689,16991 0,0 6140,-6071 8233,-16991l8404 0c2191,16608 -3422,30648 -3422,30648 0,0 13139,-5090 13640,-30648l603 0c7556,19475 9192,34022 7315,44993l-85128 0c-6506,-12799 -6652,-19799 1017,-42979 229,-692 449,-1362 663,-2014zm-3031 44993l-18811 0c-2306,-16135 4797,-31409 6712,-33922 -2062,17317 1093,24563 12099,33922z"/>
   <path class="fil30" d="M223541 188967l49456 0c772,8293 324,13629 324,13629 0,0 4887,-4833 7427,-13629l9555 0c1107,15098 -3767,27286 -3767,27286 0,0 11972,-4636 13497,-27286l2012 0c7199,19801 8054,34278 5338,44993l-103959 0c-3935,-17319 4045,-34596 6093,-37284 -2203,18501 1549,25507 14467,35875 -7349,-13832 -8025,-20356 -443,-43585z"/>
   <path class="fil31" d="M222466 192329l50793 0c393,6345 63,10268 63,10268 0,0 3651,-3609 6282,-10268l10854 0c246,13505 -3921,23924 -3921,23924 0,0 10769,-4171 13180,-23924l3513 0c6811,20178 6786,34571 3149,44993l-102032 0c-5914,-18382 2990,-37784 5170,-40646 -2203,18501 1549,25507 14467,35875 -6981,-13141 -7940,-19686 -1518,-40223z"/>
   <path class="fil32" d="M221445 195690l51968 0c125,4338 -90,6906 -90,6906 0,0 2430,-2405 4755,-6906l12354 0c-403,11833 -3893,20562 -3893,20562 0,0 9524,-3692 12664,-20562l5112 0c6386,20619 5359,34907 706,44993l-99420 0c-8288,-19305 1604,-40970 3918,-44007 -2203,18501 1549,25507 14467,35875 -6586,-12396 -7812,-18922 -2539,-36861z"/>
   <path class="fil33" d="M208139 199052l1123 0c-1599,16747 2372,23588 14722,33500 -6157,-11589 -7629,-18048 -3486,-33500l52951 0c-20,2270 -127,3544 -127,3544 0,0 1232,-1220 2780,-3544l14128 0c-850,10087 -3693,17201 -3693,17201 0,0 8235,-3191 11915,-17201l6852 0c5920,21147 3726,35297 -2053,44993l-95996 0c-9623,-17363 -2736,-37735 884,-44993z"/>
   <path class="fil34" d="M206645 202414l2365 0c-752,14354 3485,20917 14974,30138 -5691,-10711 -7379,-17041 -4331,-30138l53683 0 -13 182c0,0 63,-62 175,-182l16367 0c-1102,8270 -3328,13839 -3328,13839 0,0 6886,-2669 10879,-13839l8783 0c5406,21798 1820,35758 -5223,44993l-91626 0c-11137,-15862 -6584,-35304 -2705,-44993z"/>
   <path class="fil35" d="M205420 205776l3507 0c70,12080 4505,18307 15057,26776 -5182,-9753 -7045,-15873 -5036,-26776l70387 0c-1161,6381 -2798,10477 -2798,10477 0,0 5465,-2119 9481,-10477l10951 0c4822,22601 -441,36308 -8889,44993l-86066 0c-13035,-14772 -10306,-33785 -6593,-44993z"/>
   <path class="fil36" d="M204409 209137l4664 0c844,9949 5384,15768 14911,23414 -4624,-8704 -6606,-14515 -5550,-23414l70207 0c-1027,4421 -2103,7115 -2103,7115 0,0 3945,-1530 7595,-7115l13497 0c4162,23655 -3237,36981 -13266,44993l-79017 0c-15320,-13809 -14279,-32628 -10937,-44993z"/>
   <path class="fil37" d="M203600 212499l5929 0c1530,7987 6053,13309 14455,20053 -4017,-7561 -6039,-12938 -5810,-20053l69596 0c-686,2386 -1233,3754 -1233,3754 0,0 2276,-882 4970,-3754l16640 0c3389,25080 -6844,37815 -18604,44993l-69992 0c-18109,-12848 -18780,-31633 -15952,-44993z"/>
   <path class="fil38" d="M202988 215861l7412 0c2072,6220 6416,10939 13584,16691 -3361,-6327 -5326,-11125 -5744,-16691l68445 0c-94,257 -148,392 -148,392 0,0 294,-115 793,-392l21202 0c2460,27170 -11880,38866 -25393,44993l-58176 0c-21626,-11785 -24166,-30683 -21976,-44993z"/>
   <path class="fil39" d="M202576 219222l9235 0c2392,4667 6351,8657 12173,13329 -2669,-5024 -4457,-9084 -5290,-13329l90061 0c1263,30522 -19802,40106 -34285,44993l-42309 0c-26300,-10474 -31003,-29674 -29585,-44993z"/>
   <path class="fil40" d="M202368 222584l11513 0c2398,3322 5723,6452 10103,9968 -1961,-3691 -3446,-6861 -4427,-9968l89244 0c-378,28878 -21866,37558 -35815,42125 -2757,903 -5141,1872 -7206,2868l-24584 0c-1203,-561 -2531,-1083 -3997,-1546 -28664,-9261 -35283,-27809 -34831,-43447z"/>
   <path class="fil41" d="M202388 225946l14282 0c2006,2145 4431,4292 7315,6606 -1263,-2377 -2328,-4538 -3189,-6606l87862 0c-1937,26202 -22279,34379 -35671,38763 -5814,1904 -9978,4101 -12958,6230l-13426 0c-2227,-1836 -5265,-3600 -9403,-4908 -26635,-8605 -34232,-25229 -34812,-40085z"/>
   <path class="fil42" d="M202639 229308l17495 0c1181,1055 2462,2130 3850,3244 -598,-1126 -1152,-2202 -1660,-3244l85972 0c-3357,23554 -22508,31210 -35310,35402 -8985,2942 -14031,6585 -16853,9592l-6290 0c-2165,-2872 -5977,-6162 -12644,-8270 -24641,-7961 -32989,-22785 -34561,-36723z"/>
   <path class="fil43" d="M203154 232670l104536 0c-4618,20936 -22531,28054 -34703,32040 -12773,4183 -17588,9782 -19365,12954l-1794 0c-1384,-3166 -5076,-8612 -14628,-11632 -22667,-7323 -31544,-20455 -34045,-33361z"/>
   <path class="fil44" d="M203955 236031l102851 0c-5700,18358 -22322,24914 -33819,28678 -18835,6168 -20369,15418 -20369,15418 0,0 -1397,-9664 -15418,-14097 -20700,-6688 -29898,-18219 -33244,-30000z"/>
   <path class="fil45" d="M205075 239393l100510 0c-6579,15816 -21833,21792 -32598,25316 -18835,6168 -20369,15418 -20369,15418 0,0 -1397,-9664 -15418,-14097 -18724,-6049 -28040,-16063 -32125,-26638z"/>
   <path class="fil46" d="M206572 242755l97414 0c-7216,13329 -21033,18691 -31000,21955 -18835,6168 -20369,15418 -20369,15418 0,0 -1397,-9664 -15418,-14097 -16726,-5404 -25938,-13971 -30627,-23276z"/>
   <path class="fil47" d="M208484 246116l93435 0c-7568,10901 -19849,15619 -28932,18593 -18835,6168 -20369,15418 -20369,15418 0,0 -1397,-9664 -15418,-14097 -14690,-4746 -23589,-11932 -28715,-19915z"/>
   <path class="fil48" d="M210923 249478l88350 0c-7574,8549 -18197,12583 -26286,15231 -18835,6168 -20369,15418 -20369,15418 0,0 -1397,-9664 -15418,-14097 -12594,-4069 -20923,-9933 -26276,-16553z"/>
   <path class="fil49" d="M213974 252840l81923 0c-7149,6299 -15964,9595 -22910,11869 -18835,6168 -20369,15418 -20369,15418 0,0 -1397,-9664 -15418,-14097 -10415,-3365 -17913,-7959 -23225,-13191z"/>
   <path class="fil50" d="M217809 256202l73742 0c-6170,4187 -12973,6677 -18564,8508 -18835,6168 -20369,15418 -20369,15418 0,0 -1397,-9664 -15418,-14097 -8120,-2623 -14468,-5993 -19390,-9829z"/>
   <path class="fil51" d="M222706 259563l63120 0c-4452,2270 -8940,3869 -12839,5146 -18835,6168 -20369,15418 -20369,15418 0,0 -1397,-9664 -15418,-14097 -5651,-1826 -10441,-4014 -14493,-6468z"/>
   <path class="fil52" d="M229134 262925l48974 0c-1778,666 -3501,1254 -5121,1784 -18835,6168 -20369,15418 -20369,15418 0,0 -1397,-9664 -15418,-14097 -2916,-942 -5590,-1985 -8065,-3106z"/>
   <path class="fil53" d="M237974 266287l30710 0c-14773,6050 -16067,13841 -16067,13841 0,0 -1346,-9304 -14643,-13841z"/>
   <path class="fil54" d="M244873 269649l17103 0c-8486,5228 -9359,10479 -9359,10479 0,0 -841,-5804 -7745,-10479z"/>
   <path class="fil55" d="M248777 273010l8671 0c-4296,3903 -4831,7117 -4831,7117 0,0 -494,-3416 -3841,-7117z"/>
  </g>
 </g>
</svg>
