<?xml version="1.0" standalone="yes"?>
<svg xmlns="http://www.w3.org/2000/svg" width="525" height="127">
<path style="fill:#020205; stroke:none;" d="M0 0L0 127L525 127L525 123C518.467 123.556 518.425 117.791 525 118L525 0L0 0z"/>
<path style="fill:#504c74; stroke:none;" d="M220 4L221 5L220 4z"/>
<path style="fill:#a56381; stroke:none;" d="M221 4L221 5L314 5L285 4L221 4M219 5L220 6L219 5z"/>
<path style="fill:#d8d8e1; stroke:none;" d="M219 9L315 9L315 5L242 5C235.94 5 221.283 2.12041 219 9z"/>
<path style="fill:#504c74; stroke:none;" d="M315 6L315 28L316 28L315 6z"/>
<path style="fill:#a56381; stroke:none;" d="M219 9L219 10L315 10L286 9L219 9z"/>
<path style="fill:#d8d8e1; stroke:none;" d="M219 10L219 12L247 14L239 27L252 27L247 16L261 16L255 27L259 27L259 28L219 29L219 30L281 28L281 27L261 27L261 26L265 26L261 17L284 19L284 20L279 26C282.859 26.6878 286.686 26.4082 287 31C280.686 28.1285 271.789 30.1842 265 30.8302C251.331 32.131 234.428 35.231 221 32L221 44L226 44L225 36L234 35L233 43L242 42C242.19 36.1596 244.16 34.1902 250 34L249 41L257 40L257 33L263 33L263 39L271 39L260 43L260 34L258 34L258 44L219 50C222.836 55.3148 231.528 51.4925 237 50.3997C253.306 47.1432 269.675 44.1659 286 41L285 36L287 39L315 38C311.078 32.4486 292.112 34.1934 286 36L286 32C291.456 31.2572 295.635 27.9497 298 23L285 24C291.521 19.0594 306.957 22 315 22L315 10L219 10z"/>
<path style="fill:#504c74; stroke:none;" d="M229 12L227 15L231 15L231 14L229 12z"/>
<path style="fill:#020205; stroke:none;" d="M229 13L230 14L229 13z"/>
<path style="fill:#d8d8e1; stroke:none;" d="M228 14L220 28L236 27L228 14z"/>
<path style="fill:#a56381; stroke:none;" d="M231 14L231 15L247 15L231 14M314 14L315 15L314 14z"/>
<path style="fill:#020205; stroke:none;" d="M230 15L237 28L238 28L245 15L230 15z"/>
<path style="fill:#504c74; stroke:none;" d="M245.667 15.3333L246.333 15.6667L245.667 15.3333z"/>
<path style="fill:#a56381; stroke:none;" d="M226 16L227 17L226 16z"/>
<path style="fill:#504c74; stroke:none;" d="M230 16L231 17L230 16M244 16L245 17L244 16M247 18L260 18C257.31 14.922 249.69 14.922 247 18z"/>
<path style="fill:#a56381; stroke:none;" d="M260 16L261 17L260 16z"/>
<path style="fill:#504c74; stroke:none;" d="M225 17L226 18L225 17z"/>
<path style="fill:#020205; stroke:none;" d="M248 17L253 27L259 17L248 17z"/>
<path style="fill:#504c74; stroke:none;" d="M261 17L261 18L273 18L261 17z"/>
<path style="fill:#a56381; stroke:none;" d="M273 17L271 20C273.259 19.5379 274.212 19.145 273 17M225 18L226 19L225 18M231 18L232 19L231 18z"/>
<path style="fill:#504c74; stroke:none;" d="M243 18L244 19L243 18z"/>
<path style="fill:#a56381; stroke:none;" d="M261 18L262 19L261 18z"/>
<path style="fill:#020205; stroke:none;" d="M262 18L266 27L267 27L272 18L262 18z"/>
<path style="fill:#504c74; stroke:none;" d="M224 19L225 20L224 19M232 19L233 20L232 19z"/>
<path style="fill:#a56381; stroke:none;" d="M248 19L249 20L248 19z"/>
<path style="fill:#504c74; stroke:none;" d="M258 19L259 20L258 19M262 19L263 20L262 19z"/>
<path style="fill:#d8d8e1; stroke:none;" d="M272 19L268 26L277 26L272 19z"/>
<path style="fill:#020205; stroke:none;" d="M274 19L278 26L282 19L274 19z"/>
<path style="fill:#504c74; stroke:none;" d="M282 19L283 20L282 19z"/>
<path style="fill:#a56381; stroke:none;" d="M283 19L284 20L283 19M232 20L233 21L232 20M242 20L243 21L242 20z"/>
<path style="fill:#504c74; stroke:none;" d="M249 20L250 21L249 20M270 20L271 21L270 20M274 20L275 21L274 20M281 20L282 21L281 20z"/>
<path style="fill:#a56381; stroke:none;" d="M284 20L285 21L284 20M223 21L224 22L223 21z"/>
<path style="fill:#504c74; stroke:none;" d="M233 21L234 22L233 21M241 21L242 22L241 21z"/>
<path style="fill:#a56381; stroke:none;" d="M249 21L250 22L249 21M257 21L258 22L257 21z"/>
<path style="fill:#504c74; stroke:none;" d="M263 21L264 22L263 21z"/>
<path style="fill:#a56381; stroke:none;" d="M274 21L275 22L274 21z"/>
<path style="fill:#504c74; stroke:none;" d="M222 22L223 23L222 22M250 22L251 23L250 22M256 22L257 23L256 22M269 22L270 23L269 22M275 22L276 23L275 22M280 22L281 23L280 22z"/>
<path style="fill:#a56381; stroke:none;" d="M285 24L315 23C309.685 20.7696 288.859 19.5842 285 24z"/>
<path style="fill:#504c74; stroke:none;" d="M234 23L235 24L234 23M240 23L241 24L240 23z"/>
<path style="fill:#a56381; stroke:none;" d="M264 23L265 24L264 23z"/>
<path style="fill:#504c74; stroke:none;" d="M279 23L280 24L279 23M299 23L300 24L299 23z"/>
<path style="fill:#d8d8e1; stroke:none;" d="M300 23L307 31L305 27L309 23L300 23z"/>
<path style="fill:#504c74; stroke:none;" d="M310 23L311 24L310 23z"/>
<path style="fill:#d8d8e1; stroke:none;" d="M311 23L314 28L315 28L315 23L311 23z"/>
<path style="fill:#504c74; stroke:none;" d="M221 24L222 25L221 24z"/>
<path style="fill:#020205; stroke:none;" d="M228 24L229 25L228 24z"/>
<path style="fill:#a56381; stroke:none;" d="M229 24L230 25L229 24z"/>
<path style="fill:#504c74; stroke:none;" d="M239 24L240 25L239 24M245 24L246 25L245 24z"/>
<path style="fill:#a56381; stroke:none;" d="M246 24L247 25L246 24z"/>
<path style="fill:#504c74; stroke:none;" d="M251 24L252 25L251 24z"/>
<path style="fill:#a56381; stroke:none;" d="M255 24L256 25L255 24z"/>
<path style="fill:#504c74; stroke:none;" d="M260 24L261 25L260 24z"/>
<path style="fill:#a56381; stroke:none;" d="M268 24L269 25L268 24z"/>
<path style="fill:#504c74; stroke:none;" d="M272 24L273 25L272 24M276 24L277 25L276 24z"/>
<path style="fill:#a56381; stroke:none;" d="M279 24L280 25L279 24M300 24L301 25L300 24M228 25L229 26L228 25M235 25L236 26L235 25M239 25L240 26L239 25z"/>
<path style="fill:#504c74; stroke:none;" d="M254.333 25.6667L254.667 26.3333L254.333 25.6667z"/>
<path style="fill:#a56381; stroke:none;" d="M265 25L261 26L261 27L265 25z"/>
<path style="fill:#504c74; stroke:none;" d="M267.333 25.6667L267.667 26.3333L267.333 25.6667M278 25L277 27L278 25z"/>
<path style="fill:#a56381; stroke:none;" d="M286.667 25.3333L287.333 25.6667L286.667 25.3333M296 25L297 26L296 25M301 25L302 26L301 25M307 25L308 26L307 25M312 25L313 26L312 25M220 26L221 27L220 26z"/>
<path style="fill:#504c74; stroke:none;" d="M236 26L235 28L237 28L236 26M238 26L248 28L248 27L238 26M252 26L253 27L252 26z"/>
<path style="fill:#a56381; stroke:none;" d="M268 26L268 27L277 27L268 26M278 26L278 27L286 27L278 26z"/>
<path style="fill:#504c74; stroke:none;" d="M296 26L297 27L296 26M301 26L302 27L301 26M307 26L308 27L307 26M312 26L313 27L312 26M219 27L227 29L227 28L219 27z"/>
<path style="fill:#a56381; stroke:none;" d="M227 27L227 29L235 28L227 27M248 27L249 28L248 27z"/>
<path style="fill:#504c74; stroke:none;" d="M249 27L250 28L249 27z"/>
<path style="fill:#a56381; stroke:none;" d="M250 27L250 28L259 28L250 27z"/>
<path style="fill:#504c74; stroke:none;" d="M285 27L285 28L288 29L285 27M295 27L296 28L295 27M302 27L303 28L302 27z"/>
<path style="fill:#a56381; stroke:none;" d="M305 27L306 28L305 27z"/>
<path style="fill:#504c74; stroke:none;" d="M313 27L314 28L313 27z"/>
<path style="fill:#a56381; stroke:none;" d="M262 28L262 29L267 29L262 28z"/>
<path style="fill:#504c74; stroke:none;" d="M267 28L267 29L279 30L267 28z"/>
<path style="fill:#020205; stroke:none;" d="M274 28L274 29L287 29L274 28z"/>
<path style="fill:#504c74; stroke:none;" d="M294 28L295 29L294 28M303 28L304 29L303 28M305 28L306 29L305 28z"/>
<path style="fill:#a56381; stroke:none;" d="M241 29L241 30L245 30L241 29z"/>
<path style="fill:#504c74; stroke:none;" d="M245 29L245 30L254 30L245 29z"/>
<path style="fill:#020205; stroke:none;" d="M223 31L223 32C237.676 36.2166 258.568 30 274 30C260.356 24.2748 237.661 30.9903 223 31z"/>
<path style="fill:#a56381; stroke:none;" d="M279 29L279 30L283 30L279 29M285.667 29.3333L286.333 29.6667L285.667 29.3333z"/>
<path style="fill:#504c74; stroke:none;" d="M293 29L294 30L293 29M304 29L305 30L304 29M306 29L307 30L306 29z"/>
<path style="fill:#a56381; stroke:none;" d="M219 30L219 31L224 31L219 30z"/>
<path style="fill:#504c74; stroke:none;" d="M224 30L224 31L233 31L224 30M259 30L259 31L265 31L259 30z"/>
<path style="fill:#a56381; stroke:none;" d="M265 30L265 31L268 31L265 30z"/>
<path style="fill:#504c74; stroke:none;" d="M286 30L287 31L286 30z"/>
<path style="fill:#a56381; stroke:none;" d="M290 30L291 31L290 30z"/>
<path style="fill:#504c74; stroke:none;" d="M291 30L292 31L291 30M305 30L306 31L305 30M307 30L308 33L309 33L307 30M222 31L223 32L222 31M244 31L244 32L251 32L244 31z"/>
<path style="fill:#a56381; stroke:none;" d="M251 31L251 32L254 32L251 31M282.667 31.3333L283.333 31.6667L282.667 31.3333z"/>
<path style="fill:#504c74; stroke:none;" d="M290 31L291 32L290 31z"/>
<path style="fill:#a56381; stroke:none;" d="M307 31L308 32L307 31z"/>
<path style="fill:#504c74; stroke:none;" d="M223 32L224 33L223 32M230 32L230 33L236 33L230 32z"/>
<path style="fill:#a56381; stroke:none;" d="M236 32L236 33L240 33L236 32M269.667 32.3333L270.333 32.6667L269.667 32.3333M272 32L273 33L272 32z"/>
<path style="fill:#504c74; stroke:none;" d="M273 32L274 39L275 39L273 32z"/>
<path style="fill:#a56381; stroke:none;" d="M286.667 32.3333L287.333 32.6667L286.667 32.3333z"/>
<path style="fill:#504c74; stroke:none;" d="M288 32L289 33L288 32z"/>
<path style="fill:#a56381; stroke:none;" d="M225 33L226 34L225 33M257 33L254 40L254 41L258 41L258 34L260 34L260 43C261.695 38.9595 261.521 34.5005 257 33z"/>
<path style="fill:#504c74; stroke:none;" d="M260 33L260 34L262 40L263 40L263 33L260 33z"/>
<path style="fill:#020205; stroke:none;" d="M273 33L275 40L273 33z"/>
<path style="fill:#a56381; stroke:none;" d="M243 34L243 35L246 35L243 34z"/>
<path style="fill:#504c74; stroke:none;" d="M246 34L246 35L249 35L246 34z"/>
<path style="fill:#a56381; stroke:none;" d="M249 34L250 35L249 34z"/>
<path style="fill:#020205; stroke:none;" d="M261 34L263 42L261 34z"/>
<path style="fill:#504c74; stroke:none;" d="M287 34L287 35L292 35L287 34z"/>
<path style="fill:#a56381; stroke:none;" d="M292.667 34.3333L293.333 34.6667L292.667 34.3333z"/>
<path style="fill:#504c74; stroke:none;" d="M294 34L294 35L298 35L294 34M305 34L305 35L308 35L305 34z"/>
<path style="fill:#a56381; stroke:none;" d="M308 34L309 35L308 34z"/>
<path style="fill:#504c74; stroke:none;" d="M309 34L309 35L312 35L309 34z"/>
<path style="fill:#a56381; stroke:none;" d="M227 35L227 36L232 36L227 35z"/>
<path style="fill:#504c74; stroke:none;" d="M232 35L232 43L233 43L232 35z"/>
<path style="fill:#a56381; stroke:none;" d="M233 35L234 36L233 35z"/>
<path style="fill:#504c74; stroke:none;" d="M242 35L242 43L243 43L242 35z"/>
<path style="fill:#020205; stroke:none;" d="M243 35L242 45C249.438 44.7557 247.829 40.9776 249 35L243 35z"/>
<path style="fill:#a56381; stroke:none;" d="M286 35L287 36L286 35M300 35L300 36L303 36L300 35M313 35L314 36L313 35z"/>
<path style="fill:#504c74; stroke:none;" d="M314 35L315 36L314 35z"/>
<path style="fill:#a56381; stroke:none;" d="M225 36L226 37L225 36z"/>
<path style="fill:#020205; stroke:none;" d="M226 36L226 48C234.25 47.5429 232.135 42.5203 232 36L226 36z"/>
<path style="fill:#504c74; stroke:none;" d="M248 36L248 41L249 41L248 36z"/>
<path style="fill:#a56381; stroke:none;" d="M285 36L286 37L285 36z"/>
<path style="fill:#504c74; stroke:none;" d="M315 36L315 39L316 39L315 36z"/>
<path style="fill:#a56381; stroke:none;" d="M278 37L278 38C279.96 38.6533 280.554 39 278 39L278 40L281 39L281 38L278 37z"/>
<path style="fill:#ee1c24; stroke:none;" d="M284.667 37.3333L285.333 37.6667L284.667 37.3333M275 40L280 39L275 40z"/>
<path style="fill:#a56381; stroke:none;" d="M282 38L283 39L282 38M284 38L284 39L287 39L287 38L284 38z"/>
<path style="fill:#504c74; stroke:none;" d="M285 38L286 39L285 38z"/>
<path style="fill:#a56381; stroke:none;" d="M288.667 38.3333L289.333 38.6667L288.667 38.3333z"/>
<path style="fill:#504c74; stroke:none;" d="M290 38L290 39L295 39L290 38z"/>
<path style="fill:#a56381; stroke:none;" d="M295.667 38.3333L296.333 38.6667L295.667 38.3333M305.667 38.3333L306.333 38.6667L305.667 38.3333z"/>
<path style="fill:#504c74; stroke:none;" d="M307 38L307 39L313 39L307 38z"/>
<path style="fill:#a56381; stroke:none;" d="M313.667 38.3333L314.333 38.6667L313.667 38.3333M263 39L263 40L266 40L263 39z"/>
<path style="fill:#ee1c24; stroke:none;" d="M263 42L270 41L270 39L263 42z"/>
<path style="fill:#a56381; stroke:none;" d="M270.333 39.6667L270.667 40.3333L270.333 39.6667z"/>
<path style="fill:#504c74; stroke:none;" d="M300 39L301 40L300 39z"/>
<path style="fill:#a56381; stroke:none;" d="M272 40L273 41L272 40z"/>
<path style="fill:#504c74; stroke:none;" d="M273 40L274 41L273 40z"/>
<path style="fill:#a56381; stroke:none;" d="M274.667 40.3333L275.333 40.6667L274.667 40.3333M249 41L250 42L249 41z"/>
<path style="fill:#ee1c24; stroke:none;" d="M249 44L257 41L249 44z"/>
<path style="fill:#504c74; stroke:none;" d="M257.333 41.6667L257.667 42.3333L257.333 41.6667z"/>
<path style="fill:#a56381; stroke:none;" d="M266 41L266 42L270 42L266 41M283.667 41.3333L284.333 41.6667L283.667 41.3333z"/>
<path style="fill:#504c74; stroke:none;" d="M285 41L286 42L285 41M300 41L300 42L315 44C315.779 39.2735 303.278 41 300 41z"/>
<path style="fill:#a56381; stroke:none;" d="M237 42L237 43L241 43L237 42z"/>
<path style="fill:#ee1c24; stroke:none;" d="M241 42L233 43L233 47L242 46L241 42z"/>
<path style="fill:#504c74; stroke:none;" d="M261.667 42.3333L262.333 42.6667L261.667 42.3333z"/>
<path style="fill:#a56381; stroke:none;" d="M263 42L264 43L263 42M278 42L279 43L278 42z"/>
<path style="fill:#504c74; stroke:none;" d="M279.667 42.3333L280.333 42.6667L279.667 42.3333M288 42L288 43L292 43L288 42z"/>
<path style="fill:#a56381; stroke:none;" d="M292.667 42.3333L293.333 42.6667L292.667 42.3333z"/>
<path style="fill:#d8d8e1; stroke:none;" d="M230 65L230 66L269 49L269 50L267 51L276 53L276 52L269 49L284 45.3179L295 47L288 45L288 44L304 47L299 44L299 43L315 43C308.208 40.1501 298.165 42.067 291 42.8341C267.956 45.3012 249.552 52.9344 230 65z"/>
<path style="fill:#a56381; stroke:none;" d="M255 43L255 44L258 44L255 43M273 43L274 44L273 43z"/>
<path style="fill:#504c74; stroke:none;" d="M274.667 43.3333L275.333 43.6667L274.667 43.3333M282.667 43.3333L283.333 43.6667L282.667 43.3333z"/>
<path style="fill:#a56381; stroke:none;" d="M284 43L285 44L284 43M299 43L299 44L306 44L299 43z"/>
<path style="fill:#504c74; stroke:none;" d="M306 43L307 47L307 48L311 48L306 43z"/>
<path style="fill:#a56381; stroke:none;" d="M307 43L307 44L315 44L307 43M221 44L221 45L225 45L221 44z"/>
<path style="fill:#ee1c24; stroke:none;" d="M225 44L221 45L221 49C224.089 48.3281 226.14 47.3607 225 44z"/>
<path style="fill:#504c74; stroke:none;" d="M248 44L249 45L248 44z"/>
<path style="fill:#a56381; stroke:none;" d="M249 44L249 45L252 45L249 44M268 44L269 45L268 44z"/>
<path style="fill:#504c74; stroke:none;" d="M269.667 44.3333L270.333 44.6667L269.667 44.3333M276.667 44.3333L277.333 44.6667L276.667 44.3333z"/>
<path style="fill:#a56381; stroke:none;" d="M278 44L279 45L278 44M288 44L288 45L293 46L288 44z"/>
<path style="fill:#504c74; stroke:none;" d="M292 44L292 45L300 47L292 44z"/>
<path style="fill:#020205; stroke:none;" d="M297 44L298 45L297 44z"/>
<path style="fill:#a56381; stroke:none;" d="M298 44L299 45L298 44z"/>
<path style="fill:#020205; stroke:none;" d="M302 44L304 46L302 44z"/>
<path style="fill:#504c74; stroke:none;" d="M303 44L304 45L303 44z"/>
<path style="fill:#ee1c24; stroke:none;" d="M304 44L309 47L304 44z"/>
<path style="fill:#d8d8e1; stroke:none;" d="M308 44L313 47L308 44z"/>
<path style="fill:#020205; stroke:none;" d="M312 44L313 45L312 44z"/>
<path style="fill:#ee1c24; stroke:none;" d="M313 44L315 47L315 44L313 44z"/>
<path style="fill:#504c74; stroke:none;" d="M242 45L242 46L245 46L242 45z"/>
<path style="fill:#a56381; stroke:none;" d="M245 45L246 46L245 45M262.667 45.3333L263.333 45.6667L262.667 45.3333z"/>
<path style="fill:#504c74; stroke:none;" d="M264.667 45.3333L265.333 45.6667L264.667 45.3333M272 45L273 46L272 45z"/>
<path style="fill:#a56381; stroke:none;" d="M273 45L274 46L273 45M280 47L283 46L280 47z"/>
<path style="fill:#504c74; stroke:none;" d="M283 45L283 46L286 46L283 45z"/>
<path style="fill:#020205; stroke:none;" d="M286 45L287 46L286 45z"/>
<path style="fill:#504c74; stroke:none;" d="M287 45L289 50L294 50L294 49L287 45z"/>
<path style="fill:#020205; stroke:none;" d="M293 45L294 46L293 45z"/>
<path style="fill:#ee1c24; stroke:none;" d="M294 45L299 48L294 45z"/>
<path style="fill:#504c74; stroke:none;" d="M312 45L313 46L312 45z"/>
<path style="fill:#a56381; stroke:none;" d="M237 46L237 47L240 47L237 46M257 46L258 47L257 46z"/>
<path style="fill:#504c74; stroke:none;" d="M258.667 46.3333L259.333 46.6667L258.667 46.3333M268 46L269 47L268 46z"/>
<path style="fill:#a56381; stroke:none;" d="M269 46L270 47L269 46M277 46L279 49L277 46z"/>
<path style="fill:#504c74; stroke:none;" d="M278.667 46.3333L279.333 46.6667L278.667 46.3333M281 46L282 47L281 46z"/>
<path style="fill:#020205; stroke:none;" d="M282 46L284 48L282 46z"/>
<path style="fill:#ee1c24; stroke:none;" d="M283 46L283 47L290 49L283 46z"/>
<path style="fill:#a56381; stroke:none;" d="M288 46L289 47L288 46z"/>
<path style="fill:#504c74; stroke:none;" d="M294 46L295 47L294 46M304.333 46.6667L304.667 47.3333L304.333 46.6667M313.333 46.6667L313.667 47.3333L313.333 46.6667M231.667 47.3333L232.333 47.6667L231.667 47.3333z"/>
<path style="fill:#a56381; stroke:none;" d="M233 47L234 48L233 47M252 47L253 48L252 47z"/>
<path style="fill:#504c74; stroke:none;" d="M253.667 47.3333L254.333 47.6667L253.667 47.3333M264 47L265 48L264 47z"/>
<path style="fill:#a56381; stroke:none;" d="M265 47L266 48L265 47M272 47L273 48L272 47z"/>
<path style="fill:#504c74; stroke:none;" d="M270 48L270 49L272 50L275 48L270 48z"/>
<path style="fill:#020205; stroke:none;" d="M275 47L275 48L279 50L275 47z"/>
<path style="fill:#d8d8e1; stroke:none;" d="M278 47L285 50L278 47z"/>
<path style="fill:#a56381; stroke:none;" d="M282 47L283 48L282 47z"/>
<path style="fill:#504c74; stroke:none;" d="M295.333 47.6667L295.667 48.3333L295.333 47.6667z"/>
<path style="fill:#020205; stroke:none;" d="M299.667 47.3333L300.333 47.6667L299.667 47.3333z"/>
<path style="fill:#a56381; stroke:none;" d="M301 47L301 48L304 49L304 48L304 47L301 47z"/>
<path style="fill:#020205; stroke:none;" d="M305.667 47.3333L306.333 47.6667L305.667 47.3333M309 47L310 48L309 47z"/>
<path style="fill:#a56381; stroke:none;" d="M311.667 47.3333L312.333 47.6667L311.667 47.3333z"/>
<path style="fill:#504c74; stroke:none;" d="M224 48L224 49L227 49L224 48z"/>
<path style="fill:#a56381; stroke:none;" d="M227 48L228 49L227 48M247 48L248 49L247 48z"/>
<path style="fill:#504c74; stroke:none;" d="M248.667 48.3333L249.333 48.6667L248.667 48.3333M261 48L262 49L261 48z"/>
<path style="fill:#a56381; stroke:none;" d="M262 48L263 49L262 48M269 48L270 49L269 48z"/>
<path style="fill:#020205; stroke:none;" d="M271 48L272 49L271 48z"/>
<path style="fill:#ee1c24; stroke:none;" d="M273 48L280 52L273 48z"/>
<path style="fill:#504c74; stroke:none;" d="M276 48L277 49L276 48M284 48L288 51L288 50L284 48z"/>
<path style="fill:#a56381; stroke:none;" d="M291 48L292 49L291 48M293 48L295 50L295 48L293 48z"/>
<path style="fill:#020205; stroke:none;" d="M296 48L297 49L296 48z"/>
<path style="fill:#504c74; stroke:none;" d="M297 48L297 49L302 49L297 48z"/>
<path style="fill:#d8d8e1; stroke:none;" d="M256 66C263.714 64.8744 270.658 58.4877 278 55.615C289.962 50.9347 302.303 50 315 50L315 48C296.856 48 268.035 50.4164 256 66z"/>
<path style="fill:#504c74; stroke:none;" d="M315.333 48.6667L315.667 49.3333L315.333 48.6667M219.667 49.3333L220.333 49.6667L219.667 49.3333z"/>
<path style="fill:#a56381; stroke:none;" d="M221.667 49.3333L222.333 49.6667L221.667 49.3333M241.667 49.3333L242.333 49.6667L241.667 49.3333z"/>
<path style="fill:#504c74; stroke:none;" d="M243.667 49.3333L244.333 49.6667L243.667 49.3333M258 49L259 50L258 49z"/>
<path style="fill:#a56381; stroke:none;" d="M259 49L260 50L259 49M265 49L266 50L265 49z"/>
<path style="fill:#504c74; stroke:none;" d="M266.667 49.3333L267.333 49.6667L266.667 49.3333z"/>
<path style="fill:#a56381; stroke:none;" d="M268 49L269 50L268 49M270 49L271 50L270 49z"/>
<path style="fill:#020205; stroke:none;" d="M272 49L273 50L272 49z"/>
<path style="fill:#504c74; stroke:none;" d="M279 49L280 50L279 49z"/>
<path style="fill:#020205; stroke:none;" d="M286 49L287 50L286 49M290 49L291 50L290 49z"/>
<path style="fill:#a56381; stroke:none;" d="M226 50L227 51L226 50M236 50L237 51L236 50z"/>
<path style="fill:#504c74; stroke:none;" d="M237.667 50.3333L238.333 50.6667L237.667 50.3333M255 50L256 51L255 50z"/>
<path style="fill:#a56381; stroke:none;" d="M256 50L257 51L256 50z"/>
<path style="fill:#504c74; stroke:none;" d="M263.667 50.3333L264.333 50.6667L263.667 50.3333z"/>
<path style="fill:#020205; stroke:none;" d="M265 50L265 51L273 55L273 54L265 50z"/>
<path style="fill:#a56381; stroke:none;" d="M272 50L273 51L272 50z"/>
<path style="fill:#504c74; stroke:none;" d="M273 50L275 52L273 50z"/>
<path style="fill:#020205; stroke:none;" d="M274 50L275 51L274 50M280 50L280 52L282 52L280 50z"/>
<path style="fill:#a56381; stroke:none;" d="M281 50L282 51L281 50M284.333 50.6667L284.667 51.3333L284.333 50.6667M288 50L289 51L288 50M299.667 50.3333L300.333 50.6667L299.667 50.3333z"/>
<path style="fill:#504c74; stroke:none;" d="M301 50L301 51L306 51L301 50z"/>
<path style="fill:#a56381; stroke:none;" d="M219 51L221 54L219 51M221 51L222 52L221 51M231 51L232 52L231 51z"/>
<path style="fill:#504c74; stroke:none;" d="M232.667 51.3333L233.333 51.6667L232.667 51.3333M253 51L254 52L253 51M255 53L259 57L257 54L262 54L263 54L262 51L255 53z"/>
<path style="fill:#020205; stroke:none;" d="M262 51L263 52L262 51z"/>
<path style="fill:#ee1c24; stroke:none;" d="M263 51L271 55L263 51z"/>
<path style="fill:#504c74; stroke:none;" d="M266 51L267 52L266 51M268 51L269 52L268 51z"/>
<path style="fill:#020205; stroke:none;" d="M275 51L278 53L278 52L275 51z"/>
<path style="fill:#504c74; stroke:none;" d="M276 51L277 52L276 51M282.667 51.3333L283.333 51.6667L282.667 51.3333z"/>
<path style="fill:#a56381; stroke:none;" d="M292 51L293 52L292 51z"/>
<path style="fill:#504c74; stroke:none;" d="M293 51L293 52L296 52L293 51z"/>
<path style="fill:#a56381; stroke:none;" d="M226 52L227 53L226 52z"/>
<path style="fill:#504c74; stroke:none;" d="M227.667 52.3333L228.333 52.6667L227.667 52.3333z"/>
<path style="fill:#a56381; stroke:none;" d="M251 52L252 53L251 52M257 52L258 53L257 52z"/>
<path style="fill:#020205; stroke:none;" d="M261 52L262 53L261 52z"/>
<path style="fill:#a56381; stroke:none;" d="M270 52L271 53L270 52z"/>
<path style="fill:#504c74; stroke:none;" d="M278.667 52.3333L279.333 52.6667L278.667 52.3333z"/>
<path style="fill:#a56381; stroke:none;" d="M280 52L281 53L280 52M287 52L288 53L287 52z"/>
<path style="fill:#504c74; stroke:none;" d="M288.667 52.3333L289.333 52.6667L288.667 52.3333M221 53L221 54L224 54L221 53M248 53L249 54L248 53z"/>
<path style="fill:#a56381; stroke:none;" d="M249 53L250 54L249 53z"/>
<path style="fill:#d8d8e1; stroke:none;" d="M257 54C260.073 56.4766 263.373 58.0253 267 56L257 54z"/>
<path style="fill:#a56381; stroke:none;" d="M261 53L262 54L261 53z"/>
<path style="fill:#020205; stroke:none;" d="M263 53L264 54L263 53z"/>
<path style="fill:#504c74; stroke:none;" d="M264.333 53.6667L264.667 54.3333L264.333 53.6667M271 53L272 54L271 53z"/>
<path style="fill:#a56381; stroke:none;" d="M272 53L273 54L272 53M274.333 53.6667L274.667 54.3333L274.333 53.6667z"/>
<path style="fill:#504c74; stroke:none;" d="M275.667 53.3333L276.333 53.6667L275.667 53.3333z"/>
<path style="fill:#a56381; stroke:none;" d="M277 53L278 54L277 53M284 53L285 54L284 53z"/>
<path style="fill:#504c74; stroke:none;" d="M285 53L286 54L285 53M246 54L247 55L246 54z"/>
<path style="fill:#a56381; stroke:none;" d="M247 54L248 55L247 54z"/>
<path style="fill:#504c74; stroke:none;" d="M253.333 54.6667L253.667 55.3333L253.333 54.6667z"/>
<path style="fill:#020205; stroke:none;" d="M254.667 54.3333L255.333 54.6667L254.667 54.3333M265 54L265 55L269 57L265 54z"/>
<path style="fill:#504c74; stroke:none;" d="M273 54L274 55L273 54z"/>
<path style="fill:#a56381; stroke:none;" d="M280 54L281 55L280 54z"/>
<path style="fill:#504c74; stroke:none;" d="M281.667 54.3333L282.333 54.6667L281.667 54.3333M244 55L245 56L244 55z"/>
<path style="fill:#a56381; stroke:none;" d="M245 55L246 56L245 55z"/>
<path style="fill:#504c74; stroke:none;" d="M251 55L252 56L251 55z"/>
<path style="fill:#020205; stroke:none;" d="M250 56L250 57L253 58L253 55L250 56z"/>
<path style="fill:#ee1c24; stroke:none;" d="M252 56L252 57L263 59L252 56z"/>
<path style="fill:#a56381; stroke:none;" d="M258 55L259 56L258 55z"/>
<path style="fill:#504c74; stroke:none;" d="M266 55L267 56L266 55M268 55L268 56L272 56L268 55M278 55L279 56L278 55z"/>
<path style="fill:#a56381; stroke:none;" d="M243 56L244 57L243 56z"/>
<path style="fill:#504c74; stroke:none;" d="M249 56L250 57L249 56z"/>
<path style="fill:#020205; stroke:none;" d="M259 56L260 57L259 56z"/>
<path style="fill:#504c74; stroke:none;" d="M260 56L261 57L260 56M267 56L266 58L267 56z"/>
<path style="fill:#a56381; stroke:none;" d="M269 56L270 57L269 56M275 56L276 57L275 56z"/>
<path style="fill:#504c74; stroke:none;" d="M276 56L277 57L276 56M241 57L242 58L241 57M247.333 57.6667L247.667 58.3333L247.333 57.6667z"/>
<path style="fill:#020205; stroke:none;" d="M248 57L249 58L248 57z"/>
<path style="fill:#a56381; stroke:none;" d="M249.667 57.3333L250.333 57.6667L249.667 57.3333z"/>
<path style="fill:#504c74; stroke:none;" d="M251 57L252 58L251 57M253 57L255 59L253 57z"/>
<path style="fill:#020205; stroke:none;" d="M261 57L262 58L261 57z"/>
<path style="fill:#504c74; stroke:none;" d="M262 57L263 58L262 57z"/>
<path style="fill:#a56381; stroke:none;" d="M263 57L264 58L263 57M265.333 57.6667L265.667 58.3333L265.333 57.6667M267 57L268 58L267 57z"/>
<path style="fill:#504c74; stroke:none;" d="M273 57L274 58L273 57M239 58L240 59L239 58M245 58L246 59L245 58z"/>
<path style="fill:#020205; stroke:none;" d="M246 58L240 62L240 63L249 61L249 60L246 58z"/>
<path style="fill:#d8d8e1; stroke:none;" d="M248 58C250.649 61.5264 254.908 62.0226 259 61L248 58z"/>
<path style="fill:#a56381; stroke:none;" d="M253 58L254 59L253 58z"/>
<path style="fill:#020205; stroke:none;" d="M255 58L256 59L255 58z"/>
<path style="fill:#504c74; stroke:none;" d="M256 58L258 60L256 58z"/>
<path style="fill:#020205; stroke:none;" d="M263 58L262 60L263 58z"/>
<path style="fill:#504c74; stroke:none;" d="M264 58L265 59L264 58M271 58L272 59L271 58z"/>
<path style="fill:#a56381; stroke:none;" d="M238 59L239 60L238 59M243 59L244 60L243 59M247 59L248 60L247 59M256 59L257 60L256 59z"/>
<path style="fill:#020205; stroke:none;" d="M258 59L259 60L258 59z"/>
<path style="fill:#504c74; stroke:none;" d="M259 59L259 62L260 62L259 59M263 59L264 60L263 59M269 59L270 60L269 59M236 60L237 61L236 60M242 60L243 61L242 60M244 60L245 61L244 60z"/>
<path style="fill:#ee1c24; stroke:none;" d="M242 62L242 63L255 64C250.796 61.342 246.668 59.9933 242 62z"/>
<path style="fill:#504c74; stroke:none;" d="M249.333 60.6667L249.667 61.3333L249.333 60.6667z"/>
<path style="fill:#a56381; stroke:none;" d="M250 60L251 61L250 60z"/>
<path style="fill:#020205; stroke:none;" d="M260 60L261 61L260 60z"/>
<path style="fill:#504c74; stroke:none;" d="M261 60L262 61L261 60M267 60L268 61L267 60z"/>
<path style="fill:#a56381; stroke:none;" d="M235 61L236 62L235 61M240 61L241 62L240 61z"/>
<path style="fill:#020205; stroke:none;" d="M250.667 61.3333L251.333 61.6667L250.667 61.3333z"/>
<path style="fill:#504c74; stroke:none;" d="M252.333 61.6667L252.667 62.3333L252.333 61.6667z"/>
<path style="fill:#a56381; stroke:none;" d="M253 61L254 62L253 61M258 61L259 62L258 61M260 61L261 62L260 61M265 61L266 62L265 61z"/>
<path style="fill:#504c74; stroke:none;" d="M266 61L267 62L266 61M233 62L234 63L233 62M239.333 62.6667L239.667 63.3333L239.333 62.6667z"/>
<path style="fill:#020205; stroke:none;" d="M253 62L253 63L256 65L257 64L253 62z"/>
<path style="fill:#504c74; stroke:none;" d="M255 62L256 63L255 62z"/>
<path style="fill:#a56381; stroke:none;" d="M256 62L257 63L256 62z"/>
<path style="fill:#504c74; stroke:none;" d="M257.333 62.6667L257.667 63.3333L257.333 62.6667z"/>
<path style="fill:#020205; stroke:none;" d="M258 62L259 63L258 62z"/>
<path style="fill:#504c74; stroke:none;" d="M264 62L265 63L264 62M232 63L233 64L232 63z"/>
<path style="fill:#a56381; stroke:none;" d="M237 63L239 65L237 63z"/>
<path style="fill:#020205; stroke:none;" d="M238 63L239 64L238 63z"/>
<path style="fill:#a56381; stroke:none;" d="M240 63L241 64L240 63z"/>
<path style="fill:#504c74; stroke:none;" d="M241.667 63.3333L242.333 63.6667L241.667 63.3333z"/>
<path style="fill:#020205; stroke:none;" d="M243 63L243 64L246 64L243 63z"/>
<path style="fill:#a56381; stroke:none;" d="M262 63L263 64L262 63M231 64L232 65L231 64z"/>
<path style="fill:#504c74; stroke:none;" d="M236 64L236 67L237 67L236 64z"/>
<path style="fill:#020205; stroke:none;" d="M237 64L236 66L237 64z"/>
<path style="fill:#d8d8e1; stroke:none;" d="M237 65L237 66L249 66L237 65z"/>
<path style="fill:#a56381; stroke:none;" d="M244 64L245 65L244 64z"/>
<path style="fill:#504c74; stroke:none;" d="M245.667 64.3333L246.333 64.6667L245.667 64.3333z"/>
<path style="fill:#020205; stroke:none;" d="M247 64L247 65L250 65L247 64z"/>
<path style="fill:#504c74; stroke:none;" d="M250 64L249 65L252 67L250 64M254 64L255 65L254 64z"/>
<path style="fill:#a56381; stroke:none;" d="M256 64L257 65L256 64z"/>
<path style="fill:#504c74; stroke:none;" d="M261 64L262 65L261 64M229.333 65.6667L229.667 66.3333L229.333 65.6667z"/>
<path style="fill:#a56381; stroke:none;" d="M255 65L259 67L259 66L255 65z"/>
<path style="fill:#504c74; stroke:none;" d="M260 65L261 66L260 65z"/>
<path style="fill:#a56381; stroke:none;" d="M230 66L230 67L234 67L230 66z"/>
<path style="fill:#504c74; stroke:none;" d="M234 66L235 67L234 66z"/>
<path style="fill:#a56381; stroke:none;" d="M237 66L237 67L251 67L237 66z"/>
<path style="fill:#504c74; stroke:none;" d="M254 66L255 67L254 66M259 66L260 67L259 66z"/>
<path style="fill:#ee1c24; stroke:none;" d="M322 95C326.683 101.646 327.354 105.442 326.981 113.999C326.826 117.543 324.777 122.551 320.277 119.953C310.354 114.224 317.634 95.1744 303 95L290 124L302 124L298 120C301.661 109.646 308.939 115.005 305 124C312.652 124 335.964 127.763 341 122C346.034 124.124 349.966 124.124 355 122L366 124L363 121C363.315 115.261 365.236 113.189 371 113L370 124C378.328 124 386.673 124.156 395 124C398.587 123.933 403.134 125.043 404 121L405 121L405 124L423 124L423 121L418 121C418 110.324 417.83 104.039 423 95L409 95L405 107C401.168 95.0161 398.182 95 386 95L391 98L391 108C391 109.986 391.114 112.019 390.941 113.999C390.594 117.984 386.497 123.804 382.895 118.706C379.626 114.079 377.819 93.8616 370.115 95.3765C363.614 96.6549 361.061 116.243 355 121L356 117L350 120C349.996 114.996 350.465 110.659 345 109C351.064 105.388 353.253 98.2223 344.995 95.3441C337.68 92.7942 329.547 94.9992 322 95M4 95L4 98L8 98L8 121L4 121L4 124L21 124L17 121L17 112L34 108L38 98L39 98L40 120L35 121L35 124L53 124L53 121L49 121L49 98L54 108L57 108L57 95L32 95L32 100C24.1509 93.025 13.8998 95 4 95M285 120L288 123L291 108L275 108L275 112L279 112C278.896 115.196 276.084 123.65 272.179 117.728C270.136 114.628 270.712 108.531 271.109 105.001C272.281 94.586 281.506 99.6023 283 107L286 107L286 95C278.786 96.664 271.255 92.8182 265.394 99.2137C258.591 106.637 261.073 119.883 271.001 123.003C276.204 124.638 280.463 122.318 285 120M98 120L101 123L105 109L89 109L89 112L93 112C92.6286 134.795 75.3001 99.0981 90.0139 99.5602C95.2048 99.7232 95.513 106.693 100 108L100 97C93.4381 97.176 86.9739 94.5239 81.044 98.7029C65.4638 109.683 82.5748 130.5 98 120M102 96L102 99C113.696 102.55 100.043 121.042 115 123.67C136.606 127.466 119.423 99.2077 137 99C137 108.083 137.883 115.258 133 123L159 121C160.013 125.726 167.005 124 171 124C170.344 122.04 168.266 119.968 168.237 117.89C168.136 110.755 180.419 114.732 174 122L174 123L204 123C200.081 116.659 199 113.729 199 106L200 106C203.119 113.416 208.289 122.717 217 123C217 112.204 216.382 105.09 222 96L209 96L214 110L213 110C207.473 98.8904 202.988 96 191 96C194.744 102.545 196.658 105.875 195.941 113.996C195.635 117.461 192.478 122.531 188.51 119.353C183.739 115.531 183.194 94.7449 175.089 96.3765C167.254 97.9537 167.245 116.785 159 121C164.989 112.481 164.528 100.138 152.999 96.7894C138.07 92.4531 117.531 96 102 96M242 120L245 123L248 109L232 109L232 112L236 112C235.707 120.999 228.289 121.181 228.015 112C227.69 101.096 237.227 94.2668 240 108L243 108L243 97C236.334 97.2575 230.105 94.4975 224.094 98.8542C215.443 105.124 217.047 118.748 227.001 122.655C232.549 124.833 237.079 122.514 242 120M436 96L436 109L439 109L444 99C444 108.342 445.027 116.03 440 124L457 124C451.973 116.03 453 108.342 453 99L461 109L461 98C466.615 103.499 464 116.56 464 124C470.604 122.149 480.364 126.197 485.347 120.606C493.505 111.453 483.276 100.061 473 105L473 96L436 96M488 96C490.83 105.961 492.745 114.116 488 124L503 122L504 122L517 124L509.021 108.799L515 103L503 103C503.62 106.895 503.057 108.502 500 111L500 96L488 96z"/>
<path style="fill:#020205; stroke:none;" d="M17 98L17 109C24.1409 107.819 24.1409 99.1811 17 98M118.317 98.9167C113.751 100.562 113.492 123.724 122.683 119.392C127.481 117.13 127.96 95.4422 118.317 98.9167M336 98L336 107C342.254 105.956 342.254 99.0437 336 98M146 99L146 108L146.005 113.999C146.073 117.619 148.158 123.31 152.258 118.562C157.611 112.363 154.225 99.6257 146 99z"/>
<path style="fill:#a56381; stroke:none;" d="M271 101L272 102L271 101z"/>
<path style="fill:#020205; stroke:none;" d="M303 105C302.254 107.946 301.803 109.311 305 110L303 105M367 105L366 110C369.345 109.28 369.036 107.332 367 105M172 106C171.423 108.711 171.232 109.395 174 110L172 106M475 106C472.995 111.355 472.995 115.645 475 121L477 121C479.238 115.697 479.238 111.303 477 106L475 106M394 107C394 112.729 392.712 118.688 399 121L394 107M408 107L405 121L409 121L408 107M336 110C336.001 115.023 335.043 120.006 341 121C340.997 116.099 341.798 111.007 336 110M500 115L503 122L500 115z"/>
<path style="fill:#ee1c24; stroke:none;" d="M57.6034 118.043C54.3885 120.441 58.4003 125.238 61.3819 122.357C64.0866 119.744 60.5108 115.875 57.6034 118.043M520.318 118.136C516.976 120.059 520.374 124.95 523.397 122.917C526.29 120.972 523.398 116.363 520.318 118.136z"/>
</svg>
