<?xml version="1.0" encoding="UTF-8" standalone="no"?>
<svg
   xmlns:dc="http://purl.org/dc/elements/1.1/"
   xmlns:cc="http://creativecommons.org/ns#"
   xmlns:rdf="http://www.w3.org/1999/02/22-rdf-syntax-ns#"
   xmlns:svg="http://www.w3.org/2000/svg"
   xmlns="http://www.w3.org/2000/svg"
   xmlns:sodipodi="http://sodipodi.sourceforge.net/DTD/sodipodi-0.dtd"
   xmlns:inkscape="http://www.inkscape.org/namespaces/inkscape"
   id="svg"
   version="1.1"
   width="321.29428"
   height="239.22926"
   viewBox="0 0 321.29428 239.22926"
   sodipodi:docname="Logo_baru_kukm.svg"
   inkscape:version="1.0.1 (3bc2e813f5, 2020-09-07)">
  <metadata
     id="metadata13">
    <rdf:RDF>
      <cc:Work
         rdf:about="">
        <dc:format>image/svg+xml</dc:format>
        <dc:type
           rdf:resource="http://purl.org/dc/dcmitype/StillImage" />
        <dc:title></dc:title>
      </cc:Work>
    </rdf:RDF>
  </metadata>
  <defs
     id="defs11" />
  <sodipodi:namedview
     pagecolor="#ffffff"
     bordercolor="#666666"
     borderopacity="1"
     objecttolerance="10"
     gridtolerance="10"
     guidetolerance="10"
     inkscape:pageopacity="0"
     inkscape:pageshadow="2"
     inkscape:window-width="1366"
     inkscape:window-height="705"
     id="namedview9"
     showgrid="false"
     fit-margin-top="0"
     fit-margin-left="0"
     fit-margin-right="0"
     fit-margin-bottom="0"
     inkscape:zoom="1.356429"
     inkscape:cx="160"
     inkscape:cy="119.33904"
     inkscape:window-x="-8"
     inkscape:window-y="-8"
     inkscape:window-maximized="1"
     inkscape:current-layer="svg" />
  <g
     id="svgg"
     transform="translate(-40,-39.89173)">
    <path
       id="path0"
       d="m 281.429,80.329 c -3.748,0.164 -8.445,0.407 -10.44,0.539 -1.994,0.133 -4.418,0.286 -5.385,0.34 -11.657,0.655 -33.724,4.19 -37.423,5.996 -6.126,2.989 -6.04,12.396 0.142,15.529 2.129,1.079 3.576,1.148 7.941,0.379 8.167,-1.439 13.569,-2.026 30.879,-3.355 1.45,-0.112 9.844,-0.263 18.653,-0.336 l 16.016,-0.132 -0.14,-3.765 c -0.229,-6.141 -0.623,-15.191 -0.663,-15.24 -0.186,-0.225 -14.132,-0.193 -19.58,0.045 m 38.714,4.561 c 0.263,3.594 0.736,12.851 0.736,14.42 v 0.843 l 2.739,0.146 c 6.778,0.363 16.843,1.491 23.195,2.6 6.467,1.13 8.139,1.047 10.613,-0.528 5.401,-3.437 4.998,-12.13 -0.695,-14.99 -3.273,-1.644 -29.707,-6.062 -36.269,-6.062 h -0.581 l 0.262,3.571 m -89.451,28.967 c -7.525,1.263 -9.612,11.51 -3.214,15.782 2.93,1.957 17.831,4.799 36.455,6.953 l 0.966,0.112 -0.135,-1.447 c -0.075,-0.796 -0.243,-3.837 -0.373,-6.759 -0.131,-2.921 -0.292,-6.517 -0.358,-7.99 l -0.12,-2.68 -1.132,-0.117 c -0.623,-0.065 -2.863,-0.272 -4.979,-0.46 -7.776,-0.692 -15.921,-1.809 -22.474,-3.08 -3.003,-0.583 -3.023,-0.585 -4.636,-0.314 m 117.989,0.651 c -5.592,1.158 -17.714,2.484 -30.11,3.293 -6.09,0.398 -16.662,0.639 -26.127,0.595 l -9.643,-0.044 0.142,4.175 c 0.236,6.886 0.62,14.718 0.728,14.836 0.056,0.06 3.926,0.11 8.6,0.11 7.861,0 13.789,-0.207 22.125,-0.771 1.813,-0.123 4.387,-0.269 5.721,-0.324 10.281,-0.43 33.407,-4.254 36.865,-6.097 4.707,-2.509 5.79,-9.431 2.106,-13.462 -2.348,-2.569 -5.635,-3.299 -10.407,-2.311 m -156.154,96.921 v 19.78 h 3.737 3.736 v -9.89 -9.89 l 0.714,0.001 c 2.555,0.004 2.839,0.358 8.703,10.799 l 4.98,8.87 4.146,0.06 c 3.872,0.056 4.135,0.034 3.997,-0.325 -0.081,-0.212 -2.661,-4.75 -5.734,-10.084 -3.073,-5.334 -5.642,-9.843 -5.71,-10.018 -0.071,-0.185 2.173,-4.178 5.296,-9.427 2.98,-5.009 5.468,-9.233 5.528,-9.387 0.086,-0.222 -0.728,-0.267 -3.916,-0.22 l -4.024,0.06 -4.001,6.923 c -2.2,3.808 -4.085,6.917 -4.188,6.91 -0.102,-0.008 -0.681,-0.248 -1.286,-0.535 -0.849,-0.403 -1.486,-0.525 -2.801,-0.536 l -1.703,-0.015 v -6.428 L 200,191.648 h -3.736 -3.737 v 19.781 m -38.901,-6.08 c 0,14.883 0.014,15.032 1.643,18.124 5.196,9.858 22.756,9.746 27.548,-0.176 1.477,-3.058 1.443,-2.672 1.526,-17.638 l 0.074,-13.571 h -3.527 -3.527 l -0.005,12.033 c -0.004,12.721 -0.104,14.362 -0.981,16.093 -1.4,2.761 -3.485,3.852 -7.366,3.852 -4.117,0 -6.236,-1.153 -7.62,-4.148 l -0.622,-1.347 -0.063,-13.241 -0.063,-13.242 h -3.508 -3.509 v 13.261 m 78.148,-12.772 c -0.058,0.275 -0.753,8.61 -1.545,18.522 -0.791,9.912 -1.498,18.494 -1.57,19.071 l -0.13,1.05 3.702,-0.061 3.701,-0.06 0.812,-10.659 c 0.446,-5.863 0.824,-11.995 0.838,-13.627 l 0.027,-2.967 0.85,2.418 c 0.467,1.329 2.324,5.978 4.127,10.329 l 3.279,7.912 h 3.243 3.244 l 3.18,-7.582 c 1.749,-4.17 3.612,-8.819 4.14,-10.33 l 0.96,-2.747 0.007,2.528 c 0.004,1.39 0.378,7.546 0.833,13.681 l 0.826,11.154 h 3.638 3.638 l -1.583,-19.506 c -0.871,-10.728 -1.591,-19.532 -1.6,-19.565 -0.01,-0.033 -1.77,-0.033 -3.912,0 l -3.894,0.06 -3.792,9.56 c -2.086,5.258 -4.212,10.822 -4.726,12.363 l -0.933,2.802 -1.041,-3.022 c -0.572,-1.662 -2.708,-7.225 -4.748,-12.363 l -3.708,-9.34 -3.879,-0.06 c -3.879,-0.06 -3.879,-0.06 -3.984,0.439"
       stroke="none"
       fill="#93ab3c"
       fill-rule="evenodd" />
    <path
       id="path1"
       d="m 276.154,40.308 c -2.344,0.743 -4.254,2.294 -5.252,4.262 -1.524,3.007 -4.46,20.247 -5.692,33.426 l -0.296,3.16 2.103,-0.141 c 6.217,-0.417 8.861,-0.565 12.584,-0.704 l 4.107,-0.153 0.115,-0.793 c 0.063,-0.437 0.177,-1.832 0.252,-3.101 0.401,-6.729 1.822,-19.068 2.742,-23.806 1.032,-5.314 0.194,-8.338 -2.981,-10.757 -1.975,-1.505 -5.382,-2.122 -7.682,-1.393 m 27.472,0 c -5.095,1.616 -6.991,5.548 -5.743,11.91 1.062,5.414 2.237,15.33 2.77,23.386 0.132,1.995 0.336,4.27 0.453,5.055 0.422,2.837 0.677,12.445 0.662,24.89 l -0.016,12.693 2.585,-0.001 c 2.819,0 11.828,-0.344 14.729,-0.562 l 1.813,-0.136 -0.001,-7.837 c -0.004,-23.425 -2.311,-47.075 -6.055,-62.077 -1.454,-5.825 -6.176,-8.913 -11.197,-7.321 m -62.088,15.113 c -0.888,0.251 -2.058,1.293 -2.413,2.152 -0.492,1.188 -0.199,11.951 0.346,12.686 1.202,1.622 1.274,1.636 7.923,1.564 8.425,-0.091 8.213,0.12 8.206,-8.188 -0.008,-8.364 -0.101,-8.458 -8.347,-8.441 -2.72,0.006 -5.291,0.108 -5.715,0.227 m 90.41,-0.047 c -2.463,0.588 -2.717,1.364 -2.717,8.308 0,8.383 -0.198,8.186 8.186,8.186 6.467,0 6.801,-0.069 7.822,-1.611 l 0.585,-0.883 0.069,-5.215 c 0.117,-8.826 -0.053,-9.007 -8.42,-8.97 -2.66,0.011 -5.146,0.095 -5.525,0.185 m -57.772,44.192 c -2.176,0.085 -5.415,0.23 -7.198,0.321 l -3.242,0.166 v 8.875 c 0,4.881 0.084,8.874 0.185,8.874 0.102,0 0.253,2.345 0.336,5.21 0.548,18.948 3.827,43.864 6.529,49.612 2.501,5.32 9.921,6.465 14.093,2.175 2.48,-2.55 2.783,-4.871 1.561,-11.942 -1.039,-6.012 -1.716,-11.855 -2.369,-20.439 -0.189,-2.478 -0.435,-5.05 -0.548,-5.715 -0.398,-2.353 -0.693,-14.544 -0.625,-25.879 l 0.069,-11.483 -2.418,0.035 c -1.329,0.02 -4.197,0.105 -6.373,0.19 m 40.549,37.257 c -1.994,0.149 -5.915,0.347 -8.712,0.439 l -5.087,0.168 -0.147,2.109 c -0.71,10.182 -1.915,20.637 -2.989,25.95 -0.721,3.567 -0.465,5.77 0.926,7.961 3.628,5.714 12.469,5.143 15.24,-0.984 1.589,-3.514 4.304,-19.902 5.716,-34.499 l 0.143,-1.483 -0.732,0.033 c -0.402,0.018 -2.363,0.156 -4.358,0.306 M 40,165.275 v 19.78 h 3.736 3.737 v -9.89 -9.89 h 0.919 c 2.472,0 2.255,-0.277 8.536,10.879 l 4.949,8.791 4.142,0.06 c 3.888,0.056 4.133,0.036 3.993,-0.33 -0.082,-0.214 -2.668,-4.764 -5.746,-10.112 -3.078,-5.347 -5.649,-9.859 -5.713,-10.026 -0.064,-0.168 2.361,-4.469 5.39,-9.557 3.029,-5.089 5.508,-9.305 5.508,-9.369 0,-0.064 -1.805,-0.113 -4.011,-0.108 l -4.011,0.008 -4.037,7.034 c -2.22,3.869 -4.099,7.001 -4.176,6.959 -1.683,-0.918 -2.448,-1.134 -4.039,-1.143 l -1.702,-0.009 -0.001,-6.429 -10e-4,-6.428 H 43.736 40 v 19.78 m 34.123,-5.11 c 0.086,16.329 0.034,15.73 1.638,18.792 2.571,4.908 5.696,6.098 16.008,6.098 h 6.912 v -3.187 -3.187 l -4.67,-0.001 c -9.846,-0.004 -12.253,-1.481 -12.437,-7.636 l -0.081,-2.692 h 6.616 6.616 v -3.187 -3.187 h -6.593 -6.594 v -5.055 -5.055 h 8.132 8.132 v -3.187 -3.186 H 85.924 74.046 l 0.077,14.67 m 34.229,-14.372 c 0,0.17 -0.693,8.767 -1.539,19.105 -0.846,10.338 -1.538,19.103 -1.538,19.477 v 0.68 h 3.609 3.608 l 0.137,-1.374 c 0.427,-4.318 1.659,-21.925 1.67,-23.888 l 0.014,-2.32 0.85,2.417 c 0.468,1.33 2.33,5.978 4.137,10.33 l 3.286,7.912 3.267,0.053 3.268,0.054 3.352,-8.076 c 1.844,-4.441 3.693,-9.064 4.109,-10.273 l 0.757,-2.198 0.012,1.785 c 0.006,0.982 0.407,7.003 0.891,13.38 0.483,6.377 0.879,11.731 0.879,11.896 0,0.244 0.699,0.302 3.626,0.302 h 3.627 v -0.691 c 0,-0.741 -2.759,-35.498 -2.985,-37.606 l -0.135,-1.263 h -3.919 -3.918 l -0.659,1.703 c -0.362,0.937 -2.185,5.56 -4.051,10.275 -1.865,4.714 -3.717,9.555 -4.115,10.758 l -0.724,2.187 -0.943,-2.736 c -0.519,-1.506 -2.668,-7.089 -4.776,-12.407 l -3.833,-9.671 -3.982,-0.06 c -3.3,-0.049 -3.982,-0.007 -3.982,0.249 m 45.494,14.062 c 0,13.479 0.026,14.462 0.425,16.023 1.057,4.131 3.48,6.892 7.438,8.472 l 1.478,0.591 7.637,0.07 7.638,0.07 v -3.178 -3.178 l -5.55,-0.095 c -9.339,-0.161 -11.537,-1.614 -11.773,-7.784 l -0.095,-2.494 h 6.621 6.621 v -3.187 -3.187 h -6.594 -6.593 v -5.055 -5.055 h 8.242 8.241 v -3.187 -3.186 h -11.868 -11.868 v 14.36 m 31.429,5.42 v 19.78 h 3.643 3.644 l -0.072,-14.066 c -0.04,-7.736 -0.062,-14.066 -0.05,-14.066 0.012,0 4.018,6.328 8.901,14.063 l 8.879,14.063 3.681,0.003 3.681,0.003 v -19.78 -19.78 h -3.754 -3.755 l 0.074,13.926 c 0.052,10.021 0.006,13.827 -0.165,13.572 -0.13,-0.196 -0.568,-0.949 -0.972,-1.674 -5.553,-9.963 -13.297,-21.767 -16.185,-24.671 l -1.148,-1.153 h -3.201 -3.201 v 19.78 m 55.396,-19.076 c -1.665,1.134 -1.653,1.078 -1.725,7.56 -0.097,8.654 -0.225,8.512 7.757,8.62 8.805,0.119 8.901,0.027 8.895,-8.533 -0.005,-8.201 0.205,-7.995 -8.243,-8.086 -5.886,-0.064 -5.95,-0.06 -6.684,0.439 m 90.301,0.015 c -1.708,1.151 -1.741,1.297 -1.741,7.686 0,6.468 0.069,6.802 1.611,7.823 l 0.883,0.585 5.215,0.069 c 8.923,0.118 9.072,-0.031 8.953,-8.937 -0.104,-7.864 0.048,-7.726 -8.489,-7.726 -5.555,0 -5.708,0.012 -6.432,0.5 M 86.154,191.55 c -20.332,4.36 -20.908,33.611 -0.769,39.031 9.391,2.527 19.828,-2.449 23.516,-11.212 6.518,-15.493 -6.422,-31.32 -22.747,-27.819 M 40,211.429 v 19.78 h 3.736 3.737 v -9.89 -9.89 h 0.715 c 2.545,0 2.86,0.391 8.67,10.795 l 5.01,8.97 4.145,0.007 c 3.628,0.007 4.128,-0.034 4.015,-0.328 -0.071,-0.184 -2.608,-4.641 -5.639,-9.904 -3.03,-5.263 -5.61,-9.788 -5.732,-10.056 -0.193,-0.424 0.489,-1.683 5.2,-9.601 2.983,-5.013 5.473,-9.24 5.534,-9.394 0.087,-0.222 -0.726,-0.267 -3.917,-0.22 l -4.028,0.06 -4.005,6.923 c -2.202,3.808 -4.085,6.917 -4.184,6.91 -0.099,-0.008 -0.675,-0.248 -1.279,-0.535 -0.849,-0.403 -1.486,-0.525 -2.802,-0.536 l -1.702,-0.015 -10e-4,-6.428 v -6.429 H 43.736 40 v 19.781 m 77.802,-0.22 v 19.34 h 3.627 3.626 v -6.703 -6.703 h 5.009 c 5.564,0 6.618,-0.162 8.929,-1.374 8.348,-4.376 8.231,-18.693 -0.185,-22.675 -2.471,-1.169 -3.047,-1.226 -12.371,-1.226 h -8.635 v 19.341 M 93.525,198.137 c 9.719,2.481 12.938,15.305 5.693,22.678 -8.004,8.148 -21.188,2.033 -21.188,-9.826 0,-8.621 7.547,-14.882 15.495,-12.852 m 40.308,0.231 c 4.534,1.347 5.489,8.722 1.482,11.448 -1.4,0.953 -2.668,1.173 -6.754,1.173 h -3.506 v -6.484 -6.483 h 3.806 c 2.824,0 4.107,0.089 4.972,0.346 M 40.22,250.11 v 5.275 h 0.989 0.989 v -2.198 -2.198 l 0.604,0.002 c 0.538,0.003 0.737,0.245 1.81,2.198 l 1.205,2.196 h 1.157 c 1.422,0 1.443,0.212 -0.271,-2.772 -1.74,-3.032 -1.87,-2.118 0.986,-6.954 l 0.486,-0.824 h -1.182 -1.182 l -1.202,2.086 c -1.058,1.836 -1.275,2.087 -1.807,2.088 l -0.604,0.002 v -2.088 -2.088 H 41.209 40.22 v 5.275 m 71.209,-4.286 v 0.989 h 0.989 0.989 v -0.989 -0.989 h -0.989 -0.989 v 0.989 m 26.813,4.286 v 5.275 h 0.989 0.989 v -2.198 -2.198 h 0.609 c 0.545,0 0.737,0.232 1.813,2.192 l 1.204,2.192 1.282,0.006 1.281,0.006 -0.438,-0.715 c -0.827,-1.346 -2.674,-4.595 -2.674,-4.702 0,-0.059 0.643,-1.197 1.428,-2.528 0.786,-1.332 1.429,-2.463 1.429,-2.513 0,-0.051 -0.519,-0.092 -1.154,-0.092 h -1.154 l -1.174,2.088 c -1.063,1.889 -1.236,2.088 -1.814,2.088 h -0.638 v -2.088 -2.088 h -0.989 -0.989 v 5.275 m 59.121,-4.286 v 0.989 h 1.099 1.098 v -0.989 -0.989 h -1.098 -1.099 v 0.989 m 13.626,0.683 c 0,1.512 -0.037,1.655 -0.385,1.498 -3.362,-1.519 -6.328,2.147 -4.678,5.782 0.788,1.736 3.527,2.459 4.835,1.275 0.4,-0.362 0.448,-0.366 0.448,-0.041 0,0.284 0.215,0.364 0.989,0.364 h 0.989 v -5.275 -5.275 h -1.099 -1.099 v 1.672 m 26.593,2.16 c 0,5.594 0.841,6.937 4.342,6.937 3.443,0 4.221,-1.244 4.226,-6.758 l 0.004,-4.011 h -0.989 -0.989 v 3.414 c 0,4.631 -0.335,5.377 -2.413,5.377 -1.806,0 -1.983,-0.44 -1.983,-4.935 v -3.856 h -1.099 -1.099 v 3.832 m 11.429,1.443 v 5.275 h 1.099 1.099 v -2.198 c 0,-2.172 0.006,-2.198 0.526,-2.198 0.437,0 0.737,0.372 1.771,2.198 l 1.244,2.198 h 1.209 c 0.666,0 1.17,-0.075 1.122,-0.165 -0.048,-0.091 -0.749,-1.316 -1.558,-2.722 l -1.471,-2.556 1.435,-2.389 c 1.718,-2.859 1.7,-2.718 0.344,-2.718 h -1.091 l -1.229,2.088 c -1.019,1.732 -1.32,2.088 -1.766,2.088 -0.531,0 -0.536,-0.021 -0.536,-2.088 v -2.088 h -1.099 -1.099 v 5.275 m 10.549,-5.187 c 0,0.217 -0.653,7.961 -0.775,9.198 l -0.126,1.264 h 1.084 1.084 l 0.142,-2.143 c 0.078,-1.179 0.199,-2.623 0.269,-3.209 l 0.128,-1.067 0.923,2.275 0.923,2.275 0.999,0.066 1,0.066 0.966,-2.364 0.966,-2.364 0.165,2.078 c 0.091,1.144 0.221,2.598 0.29,3.233 l 0.126,1.154 h 0.973 c 1.171,0 1.116,0.533 0.609,-5.88 l -0.369,-4.67 h -1.124 c -1.12,0 -1.126,0.004 -1.483,0.934 -0.197,0.514 -0.744,1.941 -1.216,3.172 l -0.856,2.238 -1.218,-3.117 -1.217,-3.117 -1.131,-0.066 c -0.623,-0.037 -1.132,-0.017 -1.132,0.044 m -168.791,1.89 c 0,0.953 -0.058,1.099 -0.439,1.099 -0.367,0 -0.44,0.147 -0.44,0.879 0,0.733 0.073,0.879 0.44,0.879 0.405,0 0.439,0.148 0.442,1.923 0.005,2.8 0.631,3.679 2.803,3.936 l 1.15,0.137 v -1.006 c 0,-0.973 -0.023,-1.008 -0.709,-1.075 -0.927,-0.09 -1.261,-0.762 -1.266,-2.541 l -0.003,-1.374 h 0.879 0.879 v -0.879 -0.879 h -0.879 -0.879 v -1.099 -1.099 h -0.989 -0.989 v 1.099 m -39.477,1.183 c -2.692,1.219 -2.751,5.773 -0.092,7.114 1.526,0.769 3.639,0.626 5.03,-0.341 0.256,-0.178 -0.027,-1.157 -0.504,-1.744 -0.023,-0.028 -0.427,0.145 -0.897,0.385 -1.15,0.586 -1.914,0.549 -2.724,-0.133 -1.221,-1.027 -0.968,-1.189 1.851,-1.189 h 2.528 v -0.886 c 0,-2.709 -2.66,-4.352 -5.192,-3.206 m 9.862,0.133 c -0.583,0.356 -0.714,0.376 -0.714,0.11 0,-0.241 -0.261,-0.327 -0.989,-0.327 h -0.989 v 3.736 3.737 h 0.969 0.969 l 0.075,-2.286 c 0.079,-2.414 0.325,-3.021 1.393,-3.429 1.037,-0.396 1.209,0.027 1.209,2.975 v 2.74 h 1.099 1.099 v -2.099 c 0,-2.307 0.306,-3.247 1.151,-3.533 1.308,-0.444 1.479,-0.094 1.483,3.049 l 0.003,2.583 h 0.989 0.989 v -3.204 -3.204 l -0.642,-0.642 c -0.991,-0.991 -4.193,-0.657 -4.193,0.436 0,0.113 -0.289,-0.083 -0.642,-0.436 -0.793,-0.793 -2.155,-0.879 -3.259,-0.206 m 12.441,0.037 c -4.481,2.599 -0.49,9.148 4.287,7.035 1.118,-0.495 1.177,-0.631 0.685,-1.584 l -0.334,-0.646 -0.817,0.438 c -1.355,0.726 -2.776,0.401 -3.303,-0.755 l -0.257,-0.566 h 2.663 2.663 l -0.129,-1.087 c -0.343,-2.899 -2.982,-4.27 -5.458,-2.835 m 10.581,-0.318 c -0.181,0.066 -0.552,0.322 -0.824,0.57 l -0.495,0.45 v -0.478 c 0,-0.42 -0.12,-0.478 -0.989,-0.478 h -0.989 v 3.736 3.737 h 1.099 1.099 v -2.099 c 0,-2.402 0.32,-3.298 1.268,-3.548 1.535,-0.406 1.809,0.073 1.809,3.161 v 2.486 h 0.989 0.989 v -2.957 c 0,-4.249 -1.167,-5.6 -3.956,-4.58 m 13.624,0.339 c -2.462,1.676 -2.329,5.676 0.232,6.983 2.194,1.119 5.755,0.028 4.805,-1.472 l -0.429,-0.679 -0.811,0.414 c -1.544,0.787 -3.355,0.17 -3.355,-1.143 0,-0.111 1.137,-0.202 2.527,-0.202 h 2.528 l -10e-4,-0.934 c -0.001,-2.799 -3.203,-4.527 -5.496,-2.967 m 10.129,0.074 c -0.651,0.548 -0.676,0.552 -0.676,0.11 0,-0.404 -0.131,-0.459 -1.099,-0.459 h -1.099 v 3.736 3.737 h 1.078 1.079 l 0.075,-2.181 c 0.086,-2.474 0.47,-3.182 1.869,-3.445 0.7,-0.131 0.734,-0.183 0.734,-1.102 0,-1.191 -0.82,-1.356 -1.961,-0.396 m 8.719,-0.204 c -0.925,0.384 -0.962,0.489 -0.489,1.404 0.392,0.758 0.322,0.738 1.124,0.321 0.947,-0.494 1.967,-0.424 2.381,0.163 0.331,0.469 0.323,0.498 -0.152,0.559 -3.116,0.4 -4.127,1.059 -4.127,2.69 0,1.997 2.022,3.08 3.919,2.1 0.388,-0.201 0.696,-0.261 0.696,-0.135 0,0.124 0.445,0.226 0.989,0.226 h 0.989 v -2.755 c 0,-3.143 -0.257,-4.059 -1.29,-4.593 -0.851,-0.44 -2.956,-0.43 -4.04,0.02 m 10.44,0.072 c -0.583,0.356 -0.714,0.376 -0.714,0.11 0,-0.246 -0.274,-0.327 -1.099,-0.327 h -1.099 v 3.736 3.737 h 1.099 1.099 v -2.195 c 0,-2.091 0.028,-2.225 0.604,-2.84 1.67,-1.783 2.473,-0.97 2.473,2.507 v 2.528 h 1.004 1.005 l -0.071,-3.317 -0.07,-3.316 -0.617,-0.53 c -0.804,-0.69 -2.56,-0.736 -3.614,-0.093 m 22.472,-0.125 c -3.083,1.376 -3.053,5.971 0.048,7.298 3.792,1.622 7.487,-2.28 5.45,-5.756 -0.954,-1.628 -3.626,-2.378 -5.498,-1.542 m 10.36,0.144 c -0.48,0.377 -0.579,0.396 -0.579,0.11 0,-0.257 -0.227,-0.346 -0.879,-0.346 h -0.88 v 5.275 5.275 h 0.989 0.989 v -1.771 -1.771 l 0.489,0.342 c 1.303,0.913 3.702,0.155 4.511,-1.424 1.836,-3.58 -1.743,-7.969 -4.64,-5.69 m 8.398,-0.012 c -4.668,2.466 -0.462,9.23 4.374,7.035 1.032,-0.468 1.087,-0.612 0.601,-1.551 l -0.333,-0.644 -0.957,0.465 c -1.195,0.581 -2.33,0.428 -2.982,-0.402 -0.708,-0.9 -0.597,-0.951 2.054,-0.951 2.801,0 2.9,-0.057 2.636,-1.513 -0.463,-2.562 -2.994,-3.707 -5.393,-2.439 m 10.223,-0.021 c -0.38,0.231 -0.743,0.552 -0.807,0.713 -0.064,0.161 -0.125,0.021 -0.134,-0.312 -0.017,-0.567 -0.078,-0.604 -1.007,-0.604 h -0.989 v 3.736 3.737 h 1.099 1.099 v -1.989 c 0,-2.469 0.302,-3.161 1.54,-3.532 0.849,-0.255 0.878,-0.295 0.878,-1.217 0,-1.117 -0.474,-1.267 -1.679,-0.532 m 4.178,-0.106 c -0.929,0.404 -1.039,0.652 -0.634,1.435 0.389,0.754 0.451,0.771 1.212,0.336 0.733,-0.419 1.865,-0.411 2.292,0.016 0.494,0.494 0.427,0.753 -0.194,0.753 -3.062,0 -4.779,1.734 -3.814,3.853 0.549,1.205 2.862,1.637 3.994,0.747 0.48,-0.378 0.579,-0.397 0.579,-0.11 0,0.257 0.226,0.346 0.879,0.346 h 0.879 v -2.843 c 0,-3.242 -0.144,-3.797 -1.148,-4.409 -0.858,-0.523 -2.979,-0.588 -4.045,-0.124 m 8.38,-0.062 c -2.024,1.113 -1.571,3.266 0.926,4.398 1.035,0.469 1.392,0.739 1.339,1.015 -0.104,0.553 -1.172,0.591 -2.049,0.074 l -0.752,-0.444 -0.446,0.627 c -0.637,0.895 -0.571,1.078 0.574,1.584 4.285,1.896 6.944,-2.301 2.733,-4.313 -0.905,-0.433 -1.33,-0.759 -1.287,-0.987 0.09,-0.474 1.109,-0.545 1.908,-0.132 0.664,0.344 1.34,-0.252 1.34,-1.181 0,-0.733 -3.239,-1.217 -4.286,-0.641 m 25.11,0.11 c -0.926,0.384 -0.962,0.489 -0.489,1.404 0.392,0.758 0.322,0.738 1.123,0.321 0.859,-0.449 1.913,-0.417 2.354,0.07 0.495,0.548 0.458,0.697 -0.175,0.697 -3.308,0 -5.253,2.345 -3.57,4.302 0.658,0.764 2.363,0.985 3.413,0.443 0.388,-0.201 0.695,-0.261 0.695,-0.135 0,0.124 0.445,0.226 0.989,0.226 h 0.989 v -2.868 c 0,-3.199 -0.211,-3.922 -1.311,-4.491 -0.83,-0.429 -2.948,-0.413 -4.018,0.031 m 10.439,0.072 c -0.582,0.356 -0.714,0.376 -0.714,0.11 0,-0.246 -0.273,-0.327 -1.099,-0.327 h -1.099 v 3.736 3.737 h 1.099 1.099 v -2.195 c 0,-2.091 0.029,-2.225 0.604,-2.84 1.67,-1.783 2.473,-0.97 2.473,2.507 v 2.528 h 1.005 1.005 l -0.071,-3.317 -0.071,-3.316 -0.617,-0.53 c -0.803,-0.69 -2.559,-0.736 -3.614,-0.093 m -115.219,3.519 v 3.737 h 1.098 1.099 v -3.737 -3.736 h -1.099 -1.098 v 3.736 m 85.934,0 v 3.737 h 1.099 1.098 v -3.737 -3.736 h -1.098 -1.099 v 3.736 M 53.797,249.573 c 0.934,0.654 0.62,0.976 -0.948,0.976 -1.381,0 -1.427,-0.017 -1.194,-0.452 0.43,-0.803 1.404,-1.041 2.142,-0.524 m 22.851,0.261 c 0.473,0.619 0.317,0.715 -1.153,0.715 -1.568,0 -1.731,-0.17 -0.834,-0.875 0.663,-0.522 1.519,-0.453 1.987,0.16 m 24.011,-0.164 c 0.715,0.715 0.529,0.879 -0.996,0.879 -1.358,0 -1.424,-0.023 -1.206,-0.43 0.497,-0.928 1.515,-1.136 2.202,-0.449 m 70.41,0.016 c 0.88,0.692 0.712,0.863 -0.849,0.863 -0.786,0 -1.429,-0.091 -1.429,-0.203 0,-0.27 1.084,-1.115 1.429,-1.115 0.148,0 0.531,0.205 0.849,0.455 m -18.295,0.384 c 0.577,0.515 0.693,0.779 0.693,1.578 0,1.922 -2.058,2.871 -3.374,1.556 -1.949,-1.949 0.631,-4.966 2.681,-3.134 m 9.368,-0.282 c 0.759,0.532 1.051,1.816 0.638,2.804 -0.855,2.046 -3.22,1.353 -3.22,-0.944 0,-1.756 1.346,-2.726 2.582,-1.86 m 48.308,0.202 c 1.167,1.168 0.436,3.856 -1.05,3.856 -1.253,0 -2.091,-1.476 -1.681,-2.96 0.39,-1.415 1.761,-1.865 2.731,-0.896 m -90.451,2.263 c -0.002,0.422 -0.882,1.543 -1.296,1.651 -0.612,0.16 -1.463,-0.521 -1.272,-1.018 0.229,-0.596 2.571,-1.174 2.568,-0.633 m 65.935,0.181 c 0,0.391 -1.157,1.632 -1.521,1.632 -0.409,0 -1.112,-0.854 -0.983,-1.192 0.263,-0.684 2.504,-1.078 2.504,-0.44 m 33.626,-0.251 c 0,1.113 -1.298,2.091 -2.087,1.573 -0.715,-0.468 -0.697,-0.915 0.054,-1.323 0.55,-0.297 2.033,-0.48 2.033,-0.25 M 40.22,270.737 v 5.307 h 0.769 0.769 v -1.978 -1.978 h 1.077 1.077 l 1.021,1.978 1.022,1.978 h 0.983 0.983 l -0.423,-0.824 c -0.232,-0.454 -0.773,-1.443 -1.202,-2.2 l -0.78,-1.376 0.52,-0.34 c 1.17,-0.767 1.572,-2.916 0.787,-4.204 -0.734,-1.203 -1.273,-1.408 -4.064,-1.546 l -2.539,-0.125 v 5.308 m 36.923,0.032 v 5.275 h 0.769 c 0.544,0 0.769,-0.099 0.769,-0.336 0,-0.27 0.126,-0.243 0.642,0.138 1.604,1.185 4.256,0.022 4.859,-2.131 0.993,-3.549 -1.997,-6.627 -4.786,-4.926 l -0.715,0.435 v -1.865 -1.864 h -0.769 -0.769 v 5.274 m 9.231,-0.567 c 0,5.21 0.011,5.283 0.894,5.74 1.144,0.592 1.743,0.438 1.743,-0.447 0,-0.53 -0.101,-0.77 -0.322,-0.77 -0.645,0 -0.777,-0.856 -0.777,-5.04 v -4.19 h -0.769 -0.769 v 4.707 m 4.395,-3.828 v 0.879 h 0.879 0.879 v -0.879 -0.879 h -0.879 -0.879 v 0.879 m 4.396,4.395 v 5.275 h 0.769 0.769 v -1.648 c 0,-2.294 0.486,-2.294 1.93,-0.002 1.025,1.629 1.048,1.648 1.971,1.649 1.161,10e-4 1.184,0.135 -0.363,-2.165 l -1.297,-1.929 1.187,-1.569 c 1.425,-1.884 1.415,-1.81 0.254,-1.802 -0.886,0.006 -0.984,0.074 -1.887,1.319 -1.55,2.135 -1.795,1.924 -1.795,-1.545 v -2.857 h -0.769 -0.769 v 5.274 m 12.747,0 v 5.275 h 0.879 0.879 v -5.275 -5.274 h -0.879 -0.879 v 5.274 m 19.121,-3.372 c 0,1.893 -0.002,1.9 -0.443,1.501 -1.259,-1.139 -3.879,-0.472 -4.771,1.215 -1.87,3.535 1.356,7.63 4.5,5.714 0.583,-0.356 0.714,-0.376 0.714,-0.109 0,0.226 0.235,0.326 0.769,0.326 h 0.769 v -5.275 -5.274 h -0.769 -0.769 v 1.902 m 38.901,-1.023 c 0,0.858 0.018,0.879 0.769,0.879 0.751,0 0.77,-0.021 0.77,-0.879 0,-0.859 -0.019,-0.879 -0.77,-0.879 -0.751,0 -0.769,0.02 -0.769,0.879 m -120.85,1.3 c 1.125,1.389 0.092,2.875 -1.997,2.875 h -1.329 v -1.783 -1.784 l 1.458,0.093 c 1.192,0.075 1.533,0.185 1.868,0.599 m 6.444,0.987 c -2.691,1.172 -2.966,5.182 -0.482,7.023 1.782,1.32 6.032,0.239 4.939,-1.256 -0.264,-0.361 -0.339,-0.356 -1.325,0.08 -1.043,0.462 -1.494,0.45 -2.536,-0.063 -0.437,-0.216 -1.135,-1.186 -1.135,-1.577 0,-0.066 1.236,-0.121 2.747,-0.121 h 2.748 v -0.832 c 0,-2.614 -2.564,-4.296 -4.956,-3.254 m 9.186,0.128 c -0.583,0.355 -0.714,0.375 -0.714,0.109 0,-0.227 -0.235,-0.327 -0.769,-0.327 h -0.769 v 5.275 5.275 h 0.879 0.879 v -1.745 -1.746 l 0.604,0.316 c 1.601,0.835 3.723,0.121 4.459,-1.5 1.656,-3.649 -1.485,-7.538 -4.569,-5.657 m 54.152,0.105 c -0.759,0.515 -0.8,0.521 -0.8,0.11 0,-0.358 -0.151,-0.433 -0.879,-0.433 h -0.879 v 3.737 3.736 h 0.879 0.879 l 10e-4,-2.143 c 0.001,-2.389 0.382,-3.394 1.442,-3.797 1.752,-0.666 2.073,-0.168 2.073,3.208 v 2.732 h 0.896 0.895 l -0.071,-3.205 -0.071,-3.206 -0.718,-0.641 c -0.96,-0.856 -2.469,-0.897 -3.647,-0.098 m 17.883,-0.062 c -3.642,1.877 -2.497,7.128 1.612,7.39 2.578,0.164 4.125,-1.137 4.282,-3.602 0.21,-3.299 -2.929,-5.316 -5.894,-3.788 m 10.992,-0.235 c -0.3,0.12 -0.72,0.376 -0.934,0.57 -0.361,0.326 -0.389,0.317 -0.389,-0.122 0,-0.395 -0.128,-0.474 -0.77,-0.474 h -0.769 v 3.737 3.736 h 0.769 0.77 v -2.143 c 0.001,-2.456 0.341,-3.295 1.533,-3.789 1.704,-0.706 2.148,0.02 2.181,3.569 l 0.022,2.363 h 0.769 0.769 v -2.879 c 0,-4.366 -1.144,-5.688 -3.951,-4.568 m 8.347,-0.087 c -2.899,1.089 -3.251,5.743 -0.55,7.255 1.382,0.772 3.528,0.628 4.902,-0.331 0.228,-0.159 0.232,-0.317 0.019,-0.784 -0.269,-0.59 -0.718,-0.763 -0.961,-0.37 -0.554,0.896 -2.971,0.597 -3.711,-0.46 -0.702,-1.001 -0.549,-1.073 2.279,-1.073 h 2.637 v -1.014 c 0,-2.426 -2.356,-4.072 -4.615,-3.223 m 7.557,0.19 c -2.066,1.019 -1.508,3.086 1.154,4.28 1.065,0.478 1.399,0.736 1.399,1.082 0,0.874 -1.805,1.006 -2.773,0.203 -0.352,-0.293 -1.183,0.283 -1.183,0.82 0,0.947 3.381,1.543 4.617,0.813 1.908,-1.127 1.321,-3.114 -1.262,-4.273 -1.194,-0.535 -1.398,-0.707 -1.338,-1.128 0.09,-0.635 1.48,-0.814 2.274,-0.294 0.537,0.352 1.203,-0.139 1.203,-0.886 0,-0.812 -2.831,-1.239 -4.091,-0.617 m 11.289,0.016 c -0.453,0.188 -0.824,0.437 -0.824,0.553 0,0.182 0.383,1.033 0.56,1.243 0.034,0.04 0.314,-0.093 0.624,-0.296 0.772,-0.506 1.986,-0.508 2.542,-0.005 0.771,0.697 0.548,0.93 -1.13,1.179 -3.057,0.454 -4.277,2.691 -2.352,4.311 1.044,0.878 3.598,0.645 4.004,-0.367 0.062,-0.153 0.121,-0.057 0.13,0.215 0.015,0.419 0.14,0.495 0.812,0.495 h 0.795 l -0.091,-2.912 c -0.055,-1.769 -0.2,-3.111 -0.369,-3.418 -0.7,-1.273 -2.908,-1.742 -4.701,-0.998 M 67.692,271.45 c 0,3.177 0.254,4.119 1.23,4.564 0.95,0.432 2.364,0.305 3.245,-0.293 0.759,-0.515 0.8,-0.521 0.8,-0.11 0,0.348 0.15,0.433 0.769,0.433 h 0.769 v -3.736 -3.737 h -0.769 -0.769 l -0.001,1.814 c -0.002,3.067 -0.685,4.34 -2.329,4.34 -1.038,0 -1.186,-0.437 -1.186,-3.502 v -2.652 h -0.88 -0.879 v 2.879 m 23.077,0.858 v 3.736 h 0.879 0.879 v -3.736 -3.737 h -0.879 -0.879 v 3.737 m 75.165,0 v 3.736 h 0.769 0.77 v -3.736 -3.737 h -0.77 -0.769 v 3.737 M 54.186,270.21 c 0.985,0.985 0.752,1.219 -1.219,1.219 -1.819,0 -2.058,-0.145 -1.476,-0.896 0.748,-0.965 1.913,-1.105 2.695,-0.323 m 100.153,-0.105 c 1.252,0.985 0.98,1.324 -1.063,1.324 -1.958,0 -2.05,-0.053 -1.494,-0.846 0.657,-0.939 1.719,-1.138 2.557,-0.478 m -91.054,0.213 c 1.687,1.687 0.28,5.247 -1.742,4.409 -1.073,-0.444 -1.484,-1.381 -1.363,-3.102 0.101,-1.45 2.114,-2.298 3.105,-1.307 m 18.783,0.248 c 1.037,1.232 0.64,3.584 -0.699,4.138 -1.645,0.682 -3.139,-1.353 -2.473,-3.37 0.516,-1.563 2.167,-1.962 3.172,-0.768 m 44.189,-0.113 c 1.618,1.746 0.133,5.098 -1.888,4.261 -0.83,-0.343 -1.292,-1.234 -1.292,-2.488 0,-2.024 1.944,-3.107 3.18,-1.773 m 10.012,0.068 c 1.051,1.051 1.126,2.227 0.216,3.383 -1.457,1.852 -4.177,0.733 -4.177,-1.717 0,-1.965 2.578,-3.049 3.961,-1.666 m 38.016,2.391 c -0.002,0.671 -0.841,1.795 -1.455,1.95 -0.979,0.245 -1.948,-0.665 -1.489,-1.4 0.502,-0.806 2.945,-1.262 2.944,-0.55"
       stroke="none"
       fill="#045464"
       fill-rule="evenodd" />
    <path
       id="path2"
       d="m 301.594,92.637 c 0.002,0.484 0.047,0.656 0.1,0.382 0.052,-0.273 0.05,-0.669 -0.005,-0.879 -0.055,-0.21 -0.098,0.014 -0.095,0.497 m 19.128,6.374 c 0.002,0.604 0.045,0.826 0.095,0.491 0.051,-0.334 0.049,-0.828 -0.003,-1.098 -0.052,-0.271 -0.093,0.003 -0.092,0.607 m -56.7,19.89 c 0,0.665 0.041,0.937 0.091,0.604 0.051,-0.332 0.051,-0.876 0,-1.208 -0.05,-0.333 -0.091,-0.061 -0.091,0.604 m 40.868,18.393 c 0.212,0.056 0.558,0.056 0.769,0 0.212,-0.055 0.039,-0.1 -0.384,-0.1 -0.423,0 -0.596,0.045 -0.385,0.1"
       stroke="none"
       fill="#427c54"
       fill-rule="evenodd" />
    <path
       id="path3"
       d="m 281.264,80.375 c 0.272,0.052 0.717,0.052 0.989,0 0.272,-0.052 0.049,-0.095 -0.495,-0.095 -0.544,0 -0.766,0.043 -0.494,0.095 m 20.106,7.757 c 0,0.423 0.045,0.596 0.1,0.384 0.055,-0.211 0.055,-0.557 0,-0.769 -0.055,-0.211 -0.1,-0.038 -0.1,0.385 m 0.231,6.264 c 0.002,0.604 0.045,0.825 0.095,0.491 0.051,-0.334 0.049,-0.828 -0.003,-1.099 -0.052,-0.27 -0.093,0.003 -0.092,0.608 m 19.114,2.857 c 0.002,0.483 0.047,0.655 0.1,0.382 0.052,-0.274 0.05,-0.669 -0.005,-0.879 -0.055,-0.21 -0.098,0.013 -0.095,0.497 m -45.825,2.243 c 0.272,0.052 0.717,0.052 0.989,0 0.272,-0.053 0.05,-0.095 -0.494,-0.095 -0.544,0 -0.767,0.042 -0.495,0.095 m 35.934,18.677 c 0.212,0.056 0.558,0.056 0.769,0 0.212,-0.055 0.039,-0.1 -0.384,-0.1 -0.423,0 -0.596,0.045 -0.385,0.1 m -7.578,0.228 c 0.395,0.049 0.988,0.048 1.318,-0.002 0.331,-0.05 0.007,-0.09 -0.718,-0.089 -0.725,0.001 -0.995,0.042 -0.6,0.091 m -20.326,5.445 c 0.002,0.605 0.044,0.826 0.095,0.492 0.05,-0.334 0.049,-0.829 -0.003,-1.099 -0.052,-0.271 -0.094,0.003 -0.092,0.607 m -18.689,2.857 c 0.003,0.484 0.048,0.656 0.1,0.382 0.053,-0.273 0.051,-0.669 -0.004,-0.879 -0.055,-0.21 -0.098,0.014 -0.096,0.497 m 18.897,3.187 c 0,0.423 0.045,0.596 0.1,0.385 0.056,-0.212 0.056,-0.558 0,-0.77 -0.055,-0.211 -0.1,-0.038 -0.1,0.385 m 20.114,7.408 c 0.272,0.052 0.717,0.052 0.989,0 0.272,-0.052 0.049,-0.095 -0.495,-0.095 -0.544,0 -0.766,0.043 -0.494,0.095"
       stroke="none"
       fill="#588454"
       fill-rule="evenodd" />
    <path
       id="path4"
       d="m 279.508,80.375 c 0.273,0.053 0.669,0.051 0.879,-0.004 0.21,-0.055 -0.013,-0.098 -0.497,-0.096 -0.483,0.003 -0.655,0.048 -0.382,0.1 m 22.086,10.724 c 0.002,0.483 0.047,0.655 0.1,0.382 0.052,-0.273 0.05,-0.669 -0.005,-0.879 -0.055,-0.21 -0.098,0.013 -0.095,0.497 m -24.946,8.397 c 0.272,0.052 0.717,0.052 0.989,0 0.272,-0.053 0.05,-0.095 -0.494,-0.095 -0.544,0 -0.767,0.042 -0.495,0.095 m 32.75,18.681 c 0.274,0.053 0.669,0.051 0.879,-0.004 0.21,-0.055 -0.013,-0.098 -0.497,-0.096 -0.483,0.003 -0.655,0.048 -0.382,0.1 m -45.167,6.988 c 0.003,0.483 0.048,0.655 0.1,0.382 0.053,-0.273 0.051,-0.669 -0.004,-0.879 -0.055,-0.21 -0.098,0.013 -0.096,0.497 m 18.682,0.439 c 0.002,0.484 0.047,0.656 0.1,0.382 0.052,-0.273 0.05,-0.669 -0.005,-0.879 -0.055,-0.21 -0.098,0.014 -0.095,0.497 m 0.215,5.605 c 0,0.423 0.045,0.596 0.1,0.384 0.056,-0.211 0.056,-0.557 0,-0.769 -0.055,-0.211 -0.1,-0.038 -0.1,0.385 m 23.081,6.085 c 0.211,0.056 0.557,0.056 0.769,0 0.212,-0.055 0.038,-0.1 -0.385,-0.1 -0.423,0 -0.596,0.045 -0.384,0.1"
       stroke="none"
       fill="#21695c"
       fill-rule="evenodd" />
  </g>
</svg>
